<mxfile host="app.diagrams.net" modified="2023-06-07T22:04:29.929Z" agent="Mozilla/5.0 (Windows NT 10.0; Win64; x64) AppleWebKit/537.36 (KHTML, like Gecko) Chrome/114.0.0.0 Safari/537.36" etag="q8_gjZsXZKdfWXIX1QxR" version="21.3.7" type="device">
  <diagram name="Page-1" id="5nNBwUT5AgTtFKMY44Uk">
    <mxGraphModel dx="1500" dy="750" grid="1" gridSize="10" guides="1" tooltips="1" connect="1" arrows="1" fold="1" page="1" pageScale="1" pageWidth="1100" pageHeight="850" background="#ffffff" math="0" shadow="1">
      <root>
        <mxCell id="0" />
        <mxCell id="1" parent="0" />
        <mxCell id="zM6HXIATucZkBweVf0K6-77" style="edgeStyle=orthogonalEdgeStyle;rounded=0;orthogonalLoop=1;jettySize=auto;html=1;exitX=0.5;exitY=0;exitDx=0;exitDy=0;entryX=0.5;entryY=1;entryDx=0;entryDy=0;" parent="1" source="zM6HXIATucZkBweVf0K6-1" target="zM6HXIATucZkBweVf0K6-76" edge="1">
          <mxGeometry relative="1" as="geometry">
            <mxPoint x="126.67394858554769" y="47.29417850920276" as="targetPoint" />
          </mxGeometry>
        </mxCell>
        <mxCell id="zM6HXIATucZkBweVf0K6-78" style="edgeStyle=orthogonalEdgeStyle;rounded=0;orthogonalLoop=1;jettySize=auto;html=1;exitX=0.75;exitY=0;exitDx=0;exitDy=0;entryX=0;entryY=0.5;entryDx=0;entryDy=0;" parent="1" source="zM6HXIATucZkBweVf0K6-1" target="zM6HXIATucZkBweVf0K6-74" edge="1">
          <mxGeometry relative="1" as="geometry" />
        </mxCell>
        <mxCell id="zM6HXIATucZkBweVf0K6-79" style="edgeStyle=orthogonalEdgeStyle;rounded=0;orthogonalLoop=1;jettySize=auto;html=1;exitX=1;exitY=0.25;exitDx=0;exitDy=0;entryX=0;entryY=0.5;entryDx=0;entryDy=0;" parent="1" source="zM6HXIATucZkBweVf0K6-1" target="zM6HXIATucZkBweVf0K6-75" edge="1">
          <mxGeometry relative="1" as="geometry">
            <mxPoint x="208.65855631281295" y="87.03571853702124" as="targetPoint" />
          </mxGeometry>
        </mxCell>
        <mxCell id="YExKs65hsdtcWrgT1Xq_-15" style="edgeStyle=orthogonalEdgeStyle;rounded=0;orthogonalLoop=1;jettySize=auto;html=1;entryX=0;entryY=0.5;entryDx=0;entryDy=0;fontFamily=Helvetica;fontSize=12;fontColor=default;" parent="1" source="zM6HXIATucZkBweVf0K6-1" target="YExKs65hsdtcWrgT1Xq_-7" edge="1">
          <mxGeometry relative="1" as="geometry">
            <Array as="points">
              <mxPoint x="300" y="97" />
              <mxPoint x="300" y="138" />
            </Array>
          </mxGeometry>
        </mxCell>
        <mxCell id="YExKs65hsdtcWrgT1Xq_-145" style="edgeStyle=orthogonalEdgeStyle;rounded=0;orthogonalLoop=1;jettySize=auto;html=1;exitX=1;exitY=0.75;exitDx=0;exitDy=0;entryX=0.25;entryY=0;entryDx=0;entryDy=0;fontFamily=Helvetica;fontSize=12;fontColor=default;" parent="1" source="zM6HXIATucZkBweVf0K6-1" target="YExKs65hsdtcWrgT1Xq_-139" edge="1">
          <mxGeometry relative="1" as="geometry" />
        </mxCell>
        <mxCell id="zM6HXIATucZkBweVf0K6-1" value="&lt;font style=&quot;font-size: 14px;&quot;&gt;&lt;b&gt;branch&lt;br&gt;&lt;/b&gt;&lt;/font&gt;" style="rounded=0;whiteSpace=wrap;html=1;" parent="1" vertex="1">
          <mxGeometry x="93.13" y="77.5" width="90" height="40" as="geometry" />
        </mxCell>
        <mxCell id="zM6HXIATucZkBweVf0K6-250" style="edgeStyle=orthogonalEdgeStyle;rounded=0;orthogonalLoop=1;jettySize=auto;html=1;exitX=0;exitY=0;exitDx=0;exitDy=0;entryX=0.5;entryY=1;entryDx=0;entryDy=0;" parent="1" source="zM6HXIATucZkBweVf0K6-2" target="zM6HXIATucZkBweVf0K6-243" edge="1">
          <mxGeometry relative="1" as="geometry">
            <Array as="points">
              <mxPoint x="113.64" y="251.22" />
              <mxPoint x="53.64" y="251.22" />
            </Array>
          </mxGeometry>
        </mxCell>
        <mxCell id="zM6HXIATucZkBweVf0K6-251" style="edgeStyle=orthogonalEdgeStyle;rounded=0;orthogonalLoop=1;jettySize=auto;html=1;exitX=0;exitY=0.75;exitDx=0;exitDy=0;entryX=1;entryY=0.5;entryDx=0;entryDy=0;" parent="1" source="zM6HXIATucZkBweVf0K6-2" target="zM6HXIATucZkBweVf0K6-237" edge="1">
          <mxGeometry relative="1" as="geometry">
            <mxPoint x="98.72987007059577" y="284.7900000000001" as="targetPoint" />
            <Array as="points">
              <mxPoint x="113.64" y="269.22" />
            </Array>
          </mxGeometry>
        </mxCell>
        <mxCell id="zM6HXIATucZkBweVf0K6-253" style="edgeStyle=orthogonalEdgeStyle;rounded=0;orthogonalLoop=1;jettySize=auto;html=1;exitX=0.25;exitY=1;exitDx=0;exitDy=0;" parent="1" source="zM6HXIATucZkBweVf0K6-2" target="zM6HXIATucZkBweVf0K6-233" edge="1">
          <mxGeometry relative="1" as="geometry">
            <Array as="points">
              <mxPoint x="138.64" y="290.22" />
              <mxPoint x="19.64" y="290.22" />
            </Array>
          </mxGeometry>
        </mxCell>
        <mxCell id="zM6HXIATucZkBweVf0K6-255" style="edgeStyle=orthogonalEdgeStyle;rounded=0;orthogonalLoop=1;jettySize=auto;html=1;exitX=0.5;exitY=1;exitDx=0;exitDy=0;entryX=0;entryY=0;entryDx=0;entryDy=0;" parent="1" source="zM6HXIATucZkBweVf0K6-2" target="zM6HXIATucZkBweVf0K6-244" edge="1">
          <mxGeometry relative="1" as="geometry" />
        </mxCell>
        <mxCell id="zM6HXIATucZkBweVf0K6-259" style="edgeStyle=orthogonalEdgeStyle;rounded=0;orthogonalLoop=1;jettySize=auto;html=1;exitX=1;exitY=0.5;exitDx=0;exitDy=0;entryX=0;entryY=1;entryDx=0;entryDy=0;" parent="1" source="zM6HXIATucZkBweVf0K6-2" target="zM6HXIATucZkBweVf0K6-231" edge="1">
          <mxGeometry relative="1" as="geometry">
            <mxPoint x="227.33280000000045" y="244.98855999999998" as="targetPoint" />
          </mxGeometry>
        </mxCell>
        <mxCell id="YExKs65hsdtcWrgT1Xq_-30" style="edgeStyle=orthogonalEdgeStyle;rounded=0;orthogonalLoop=1;jettySize=auto;html=1;exitX=0.25;exitY=0;exitDx=0;exitDy=0;entryX=1.01;entryY=0.841;entryDx=0;entryDy=0;entryPerimeter=0;fontFamily=Helvetica;fontSize=12;fontColor=default;" parent="1" source="zM6HXIATucZkBweVf0K6-2" target="zM6HXIATucZkBweVf0K6-235" edge="1">
          <mxGeometry relative="1" as="geometry">
            <Array as="points">
              <mxPoint x="116.64" y="247.22" />
              <mxPoint x="116.64" y="198.22" />
            </Array>
          </mxGeometry>
        </mxCell>
        <mxCell id="YExKs65hsdtcWrgT1Xq_-31" style="edgeStyle=orthogonalEdgeStyle;rounded=0;orthogonalLoop=1;jettySize=auto;html=1;exitX=0.25;exitY=0;exitDx=0;exitDy=0;entryX=1;entryY=1;entryDx=0;entryDy=0;fontFamily=Helvetica;fontSize=12;fontColor=default;" parent="1" source="zM6HXIATucZkBweVf0K6-2" target="zM6HXIATucZkBweVf0K6-240" edge="1">
          <mxGeometry relative="1" as="geometry" />
        </mxCell>
        <mxCell id="YExKs65hsdtcWrgT1Xq_-32" style="edgeStyle=orthogonalEdgeStyle;rounded=0;orthogonalLoop=1;jettySize=auto;html=1;exitX=0.5;exitY=0;exitDx=0;exitDy=0;entryX=0.331;entryY=0.952;entryDx=0;entryDy=0;entryPerimeter=0;fontFamily=Helvetica;fontSize=12;fontColor=default;" parent="1" source="zM6HXIATucZkBweVf0K6-2" target="zM6HXIATucZkBweVf0K6-230" edge="1">
          <mxGeometry relative="1" as="geometry" />
        </mxCell>
        <mxCell id="YExKs65hsdtcWrgT1Xq_-33" style="edgeStyle=orthogonalEdgeStyle;rounded=0;orthogonalLoop=1;jettySize=auto;html=1;exitX=0.75;exitY=0;exitDx=0;exitDy=0;entryX=0;entryY=1;entryDx=0;entryDy=0;fontFamily=Helvetica;fontSize=12;fontColor=default;" parent="1" source="zM6HXIATucZkBweVf0K6-2" target="zM6HXIATucZkBweVf0K6-238" edge="1">
          <mxGeometry relative="1" as="geometry" />
        </mxCell>
        <mxCell id="YExKs65hsdtcWrgT1Xq_-34" style="edgeStyle=orthogonalEdgeStyle;rounded=0;orthogonalLoop=1;jettySize=auto;html=1;entryX=0;entryY=0.75;entryDx=0;entryDy=0;fontFamily=Helvetica;fontSize=12;fontColor=default;" parent="1" source="zM6HXIATucZkBweVf0K6-2" target="YExKs65hsdtcWrgT1Xq_-7" edge="1">
          <mxGeometry relative="1" as="geometry">
            <Array as="points">
              <mxPoint x="300" y="267" />
              <mxPoint x="300" y="151" />
            </Array>
          </mxGeometry>
        </mxCell>
        <mxCell id="YExKs65hsdtcWrgT1Xq_-48" style="edgeStyle=orthogonalEdgeStyle;rounded=0;orthogonalLoop=1;jettySize=auto;html=1;exitX=0.75;exitY=1;exitDx=0;exitDy=0;entryX=0;entryY=0.75;entryDx=0;entryDy=0;fontFamily=Helvetica;fontSize=12;fontColor=default;" parent="1" source="zM6HXIATucZkBweVf0K6-2" target="YExKs65hsdtcWrgT1Xq_-43" edge="1">
          <mxGeometry relative="1" as="geometry">
            <Array as="points">
              <mxPoint x="189" y="380" />
              <mxPoint x="680" y="380" />
              <mxPoint x="680" y="378" />
            </Array>
          </mxGeometry>
        </mxCell>
        <mxCell id="YExKs65hsdtcWrgT1Xq_-141" style="edgeStyle=orthogonalEdgeStyle;rounded=0;orthogonalLoop=1;jettySize=auto;html=1;exitX=0.5;exitY=1;exitDx=0;exitDy=0;entryX=0.5;entryY=0;entryDx=0;entryDy=0;fontFamily=Helvetica;fontSize=12;fontColor=default;" parent="1" source="zM6HXIATucZkBweVf0K6-2" target="YExKs65hsdtcWrgT1Xq_-135" edge="1">
          <mxGeometry relative="1" as="geometry" />
        </mxCell>
        <mxCell id="zM6HXIATucZkBweVf0K6-2" value="&lt;font style=&quot;font-size: 14px;&quot;&gt;&lt;b&gt;Instructor&lt;br&gt;&lt;/b&gt;&lt;/font&gt;" style="rounded=0;whiteSpace=wrap;html=1;" parent="1" vertex="1">
          <mxGeometry x="113.72000000000001" y="246.7300000000001" width="100" height="40" as="geometry" />
        </mxCell>
        <mxCell id="zM6HXIATucZkBweVf0K6-88" style="edgeStyle=orthogonalEdgeStyle;rounded=0;orthogonalLoop=1;jettySize=auto;html=1;exitX=0;exitY=0;exitDx=0;exitDy=0;entryX=0.5;entryY=1;entryDx=0;entryDy=0;" parent="1" source="zM6HXIATucZkBweVf0K6-3" target="zM6HXIATucZkBweVf0K6-81" edge="1">
          <mxGeometry relative="1" as="geometry" />
        </mxCell>
        <mxCell id="zM6HXIATucZkBweVf0K6-89" style="edgeStyle=orthogonalEdgeStyle;rounded=0;orthogonalLoop=1;jettySize=auto;html=1;exitX=0.75;exitY=0;exitDx=0;exitDy=0;entryX=0.265;entryY=0.864;entryDx=0;entryDy=0;entryPerimeter=0;" parent="1" source="zM6HXIATucZkBweVf0K6-3" target="zM6HXIATucZkBweVf0K6-82" edge="1">
          <mxGeometry relative="1" as="geometry" />
        </mxCell>
        <mxCell id="YExKs65hsdtcWrgT1Xq_-14" style="edgeStyle=orthogonalEdgeStyle;rounded=0;orthogonalLoop=1;jettySize=auto;html=1;entryX=1;entryY=0.5;entryDx=0;entryDy=0;fontFamily=Helvetica;fontSize=12;fontColor=default;" parent="1" source="zM6HXIATucZkBweVf0K6-3" target="YExKs65hsdtcWrgT1Xq_-7" edge="1">
          <mxGeometry relative="1" as="geometry" />
        </mxCell>
        <mxCell id="YExKs65hsdtcWrgT1Xq_-20" style="edgeStyle=orthogonalEdgeStyle;rounded=0;orthogonalLoop=1;jettySize=auto;html=1;fontFamily=Helvetica;fontSize=12;fontColor=default;entryX=1;entryY=0.5;entryDx=0;entryDy=0;" parent="1" source="zM6HXIATucZkBweVf0K6-3" target="YExKs65hsdtcWrgT1Xq_-5" edge="1">
          <mxGeometry relative="1" as="geometry">
            <mxPoint x="600" y="32" as="targetPoint" />
            <Array as="points">
              <mxPoint x="940" y="32" />
              <mxPoint x="545" y="32" />
            </Array>
          </mxGeometry>
        </mxCell>
        <mxCell id="YExKs65hsdtcWrgT1Xq_-42" style="edgeStyle=orthogonalEdgeStyle;rounded=0;orthogonalLoop=1;jettySize=auto;html=1;exitX=0.5;exitY=1;exitDx=0;exitDy=0;entryX=0.5;entryY=0;entryDx=0;entryDy=0;fontFamily=Helvetica;fontSize=12;fontColor=default;" parent="1" source="zM6HXIATucZkBweVf0K6-3" target="YExKs65hsdtcWrgT1Xq_-39" edge="1">
          <mxGeometry relative="1" as="geometry" />
        </mxCell>
        <mxCell id="YExKs65hsdtcWrgT1Xq_-102" style="edgeStyle=orthogonalEdgeStyle;rounded=0;orthogonalLoop=1;jettySize=auto;html=1;exitX=1;exitY=0.5;exitDx=0;exitDy=0;entryX=0.5;entryY=1;entryDx=0;entryDy=0;fontFamily=Helvetica;fontSize=12;fontColor=default;" parent="1" source="zM6HXIATucZkBweVf0K6-3" target="zM6HXIATucZkBweVf0K6-86" edge="1">
          <mxGeometry relative="1" as="geometry" />
        </mxCell>
        <mxCell id="YExKs65hsdtcWrgT1Xq_-138" style="edgeStyle=orthogonalEdgeStyle;rounded=0;orthogonalLoop=1;jettySize=auto;html=1;exitX=0;exitY=0.25;exitDx=0;exitDy=0;fontFamily=Helvetica;fontSize=12;fontColor=default;entryX=0.5;entryY=0;entryDx=0;entryDy=0;" parent="1" source="zM6HXIATucZkBweVf0K6-3" target="YExKs65hsdtcWrgT1Xq_-140" edge="1">
          <mxGeometry relative="1" as="geometry">
            <mxPoint x="370.0000000000002" y="280" as="targetPoint" />
          </mxGeometry>
        </mxCell>
        <mxCell id="zM6HXIATucZkBweVf0K6-3" value="&lt;font style=&quot;font-size: 14px;&quot;&gt;&lt;b&gt;Track&lt;br&gt;&lt;/b&gt;&lt;/font&gt;" style="rounded=0;whiteSpace=wrap;html=1;" parent="1" vertex="1">
          <mxGeometry x="924.22" y="83.35999999999999" width="100" height="40" as="geometry" />
        </mxCell>
        <mxCell id="YExKs65hsdtcWrgT1Xq_-11" style="edgeStyle=orthogonalEdgeStyle;rounded=0;orthogonalLoop=1;jettySize=auto;html=1;entryX=1;entryY=0.5;entryDx=0;entryDy=0;fontFamily=Helvetica;fontSize=12;fontColor=default;" parent="1" source="zM6HXIATucZkBweVf0K6-4" target="YExKs65hsdtcWrgT1Xq_-10" edge="1">
          <mxGeometry relative="1" as="geometry" />
        </mxCell>
        <mxCell id="YExKs65hsdtcWrgT1Xq_-12" style="edgeStyle=orthogonalEdgeStyle;rounded=0;orthogonalLoop=1;jettySize=auto;html=1;entryX=1;entryY=0.5;entryDx=0;entryDy=0;fontFamily=Helvetica;fontSize=12;fontColor=default;" parent="1" source="zM6HXIATucZkBweVf0K6-4" target="YExKs65hsdtcWrgT1Xq_-9" edge="1">
          <mxGeometry relative="1" as="geometry" />
        </mxCell>
        <mxCell id="YExKs65hsdtcWrgT1Xq_-18" style="edgeStyle=orthogonalEdgeStyle;rounded=0;orthogonalLoop=1;jettySize=auto;html=1;entryX=0.5;entryY=1;entryDx=0;entryDy=0;fontFamily=Helvetica;fontSize=12;fontColor=default;" parent="1" source="zM6HXIATucZkBweVf0K6-4" target="YExKs65hsdtcWrgT1Xq_-7" edge="1">
          <mxGeometry relative="1" as="geometry" />
        </mxCell>
        <mxCell id="YExKs65hsdtcWrgT1Xq_-51" style="edgeStyle=orthogonalEdgeStyle;rounded=0;orthogonalLoop=1;jettySize=auto;html=1;exitX=1;exitY=0.5;exitDx=0;exitDy=0;entryX=0;entryY=0.5;entryDx=0;entryDy=0;fontFamily=Helvetica;fontSize=12;fontColor=default;" parent="1" source="zM6HXIATucZkBweVf0K6-4" target="YExKs65hsdtcWrgT1Xq_-49" edge="1">
          <mxGeometry relative="1" as="geometry" />
        </mxCell>
        <mxCell id="YExKs65hsdtcWrgT1Xq_-103" style="edgeStyle=orthogonalEdgeStyle;rounded=0;orthogonalLoop=1;jettySize=auto;html=1;exitX=0;exitY=0;exitDx=0;exitDy=0;entryX=0.5;entryY=1;entryDx=0;entryDy=0;fontFamily=Helvetica;fontSize=12;fontColor=default;" parent="1" source="zM6HXIATucZkBweVf0K6-4" target="YExKs65hsdtcWrgT1Xq_-5" edge="1">
          <mxGeometry relative="1" as="geometry">
            <Array as="points">
              <mxPoint x="520" y="218" />
              <mxPoint x="520" y="170" />
              <mxPoint x="479" y="170" />
            </Array>
          </mxGeometry>
        </mxCell>
        <mxCell id="YExKs65hsdtcWrgT1Xq_-144" style="edgeStyle=orthogonalEdgeStyle;rounded=0;orthogonalLoop=1;jettySize=auto;html=1;exitX=0.25;exitY=1;exitDx=0;exitDy=0;entryX=1;entryY=0.5;entryDx=0;entryDy=0;fontFamily=Helvetica;fontSize=12;fontColor=default;" parent="1" source="zM6HXIATucZkBweVf0K6-4" target="YExKs65hsdtcWrgT1Xq_-140" edge="1">
          <mxGeometry relative="1" as="geometry" />
        </mxCell>
        <mxCell id="zM6HXIATucZkBweVf0K6-4" value="&lt;font style=&quot;font-size: 14px;&quot;&gt;&lt;b&gt;Round&lt;br&gt;&lt;/b&gt;&lt;/font&gt;" style="rounded=0;whiteSpace=wrap;html=1;" parent="1" vertex="1">
          <mxGeometry x="560.43" y="218.36" width="109.86" height="40" as="geometry" />
        </mxCell>
        <mxCell id="zM6HXIATucZkBweVf0K6-103" style="edgeStyle=orthogonalEdgeStyle;rounded=0;orthogonalLoop=1;jettySize=auto;html=1;exitX=0.25;exitY=1;exitDx=0;exitDy=0;entryX=0.68;entryY=0.117;entryDx=0;entryDy=0;entryPerimeter=0;" parent="1" source="zM6HXIATucZkBweVf0K6-5" target="zM6HXIATucZkBweVf0K6-99" edge="1">
          <mxGeometry relative="1" as="geometry" />
        </mxCell>
        <mxCell id="zM6HXIATucZkBweVf0K6-104" style="edgeStyle=orthogonalEdgeStyle;rounded=0;orthogonalLoop=1;jettySize=auto;html=1;exitX=0.75;exitY=1;exitDx=0;exitDy=0;entryX=0.3;entryY=0.106;entryDx=0;entryDy=0;entryPerimeter=0;" parent="1" target="zM6HXIATucZkBweVf0K6-101" edge="1">
          <mxGeometry relative="1" as="geometry">
            <mxPoint x="757.19" y="587.53" as="sourcePoint" />
          </mxGeometry>
        </mxCell>
        <mxCell id="zM6HXIATucZkBweVf0K6-111" style="edgeStyle=orthogonalEdgeStyle;rounded=0;orthogonalLoop=1;jettySize=auto;html=1;exitX=0.5;exitY=1;exitDx=0;exitDy=0;" parent="1" target="zM6HXIATucZkBweVf0K6-108" edge="1">
          <mxGeometry relative="1" as="geometry">
            <mxPoint x="734.69" y="587.53" as="sourcePoint" />
          </mxGeometry>
        </mxCell>
        <mxCell id="zM6HXIATucZkBweVf0K6-114" style="edgeStyle=orthogonalEdgeStyle;rounded=0;orthogonalLoop=1;jettySize=auto;html=1;exitX=0.75;exitY=1;exitDx=0;exitDy=0;" parent="1" target="zM6HXIATucZkBweVf0K6-113" edge="1">
          <mxGeometry relative="1" as="geometry">
            <Array as="points">
              <mxPoint x="757.1500000000001" y="635.53" />
              <mxPoint x="810.1500000000001" y="635.53" />
            </Array>
            <mxPoint x="757.19" y="587.53" as="sourcePoint" />
          </mxGeometry>
        </mxCell>
        <mxCell id="YExKs65hsdtcWrgT1Xq_-112" style="edgeStyle=orthogonalEdgeStyle;rounded=0;orthogonalLoop=1;jettySize=auto;html=1;exitX=1;exitY=1;exitDx=0;exitDy=0;entryX=0;entryY=0.5;entryDx=0;entryDy=0;fontFamily=Helvetica;fontSize=12;fontColor=default;" parent="1" source="zM6HXIATucZkBweVf0K6-5" target="zM6HXIATucZkBweVf0K6-94" edge="1">
          <mxGeometry relative="1" as="geometry">
            <Array as="points">
              <mxPoint x="780" y="600" />
              <mxPoint x="808" y="600" />
            </Array>
          </mxGeometry>
        </mxCell>
        <mxCell id="YExKs65hsdtcWrgT1Xq_-119" style="edgeStyle=orthogonalEdgeStyle;rounded=0;orthogonalLoop=1;jettySize=auto;html=1;exitX=1;exitY=0;exitDx=0;exitDy=0;entryX=0;entryY=0.5;entryDx=0;entryDy=0;fontFamily=Helvetica;fontSize=12;fontColor=default;" parent="1" source="zM6HXIATucZkBweVf0K6-5" target="zM6HXIATucZkBweVf0K6-97" edge="1">
          <mxGeometry relative="1" as="geometry">
            <Array as="points">
              <mxPoint x="780" y="569" />
            </Array>
          </mxGeometry>
        </mxCell>
        <mxCell id="YExKs65hsdtcWrgT1Xq_-124" style="edgeStyle=orthogonalEdgeStyle;rounded=0;orthogonalLoop=1;jettySize=auto;html=1;exitX=0;exitY=0.5;exitDx=0;exitDy=0;entryX=1;entryY=0.5;entryDx=0;entryDy=0;fontFamily=Helvetica;fontSize=12;fontColor=default;" parent="1" source="zM6HXIATucZkBweVf0K6-5" target="YExKs65hsdtcWrgT1Xq_-122" edge="1">
          <mxGeometry relative="1" as="geometry" />
        </mxCell>
        <mxCell id="YExKs65hsdtcWrgT1Xq_-131" style="edgeStyle=orthogonalEdgeStyle;rounded=0;orthogonalLoop=1;jettySize=auto;html=1;exitX=0;exitY=0.75;exitDx=0;exitDy=0;fontFamily=Helvetica;fontSize=12;fontColor=default;" parent="1" source="zM6HXIATucZkBweVf0K6-5" target="YExKs65hsdtcWrgT1Xq_-127" edge="1">
          <mxGeometry relative="1" as="geometry" />
        </mxCell>
        <mxCell id="zM6HXIATucZkBweVf0K6-5" value="&lt;font style=&quot;font-size: 14px;&quot;&gt;&lt;b&gt;Exam&lt;br&gt;&lt;/b&gt;&lt;/font&gt;" style="rounded=0;whiteSpace=wrap;html=1;" parent="1" vertex="1">
          <mxGeometry x="689.69" y="566.53" width="90" height="32" as="geometry" />
        </mxCell>
        <mxCell id="YExKs65hsdtcWrgT1Xq_-36" style="edgeStyle=orthogonalEdgeStyle;rounded=0;orthogonalLoop=1;jettySize=auto;html=1;exitX=1;exitY=0.75;exitDx=0;exitDy=0;entryX=0.5;entryY=0;entryDx=0;entryDy=0;fontFamily=Helvetica;fontSize=12;fontColor=default;" parent="1" source="zM6HXIATucZkBweVf0K6-6" target="zM6HXIATucZkBweVf0K6-205" edge="1">
          <mxGeometry relative="1" as="geometry" />
        </mxCell>
        <mxCell id="YExKs65hsdtcWrgT1Xq_-37" style="edgeStyle=orthogonalEdgeStyle;rounded=0;orthogonalLoop=1;jettySize=auto;html=1;exitX=0.75;exitY=1;exitDx=0;exitDy=0;entryX=0;entryY=0.5;entryDx=0;entryDy=0;fontFamily=Helvetica;fontSize=12;fontColor=default;" parent="1" source="zM6HXIATucZkBweVf0K6-6" target="zM6HXIATucZkBweVf0K6-200" edge="1">
          <mxGeometry relative="1" as="geometry" />
        </mxCell>
        <mxCell id="YExKs65hsdtcWrgT1Xq_-40" style="edgeStyle=orthogonalEdgeStyle;rounded=0;orthogonalLoop=1;jettySize=auto;html=1;entryX=1;entryY=1;entryDx=0;entryDy=0;fontFamily=Helvetica;fontSize=12;fontColor=default;" parent="1" source="zM6HXIATucZkBweVf0K6-6" target="zM6HXIATucZkBweVf0K6-202" edge="1">
          <mxGeometry relative="1" as="geometry">
            <Array as="points">
              <mxPoint x="1038" y="313.96" />
              <mxPoint x="1038" y="305.96" />
              <mxPoint x="1082" y="305.96" />
            </Array>
          </mxGeometry>
        </mxCell>
        <mxCell id="YExKs65hsdtcWrgT1Xq_-41" style="edgeStyle=orthogonalEdgeStyle;rounded=0;orthogonalLoop=1;jettySize=auto;html=1;entryX=0.5;entryY=1;entryDx=0;entryDy=0;fontFamily=Helvetica;fontSize=12;fontColor=default;" parent="1" source="zM6HXIATucZkBweVf0K6-6" target="YExKs65hsdtcWrgT1Xq_-39" edge="1">
          <mxGeometry relative="1" as="geometry" />
        </mxCell>
        <mxCell id="YExKs65hsdtcWrgT1Xq_-47" style="edgeStyle=orthogonalEdgeStyle;rounded=0;orthogonalLoop=1;jettySize=auto;html=1;entryX=1;entryY=0.5;entryDx=0;entryDy=0;fontFamily=Helvetica;fontSize=12;fontColor=default;" parent="1" source="zM6HXIATucZkBweVf0K6-6" target="YExKs65hsdtcWrgT1Xq_-43" edge="1">
          <mxGeometry relative="1" as="geometry" />
        </mxCell>
        <mxCell id="YExKs65hsdtcWrgT1Xq_-52" style="edgeStyle=orthogonalEdgeStyle;rounded=0;orthogonalLoop=1;jettySize=auto;html=1;exitX=0.25;exitY=0;exitDx=0;exitDy=0;entryX=1;entryY=0.5;entryDx=0;entryDy=0;fontFamily=Helvetica;fontSize=12;fontColor=default;" parent="1" source="zM6HXIATucZkBweVf0K6-6" target="YExKs65hsdtcWrgT1Xq_-49" edge="1">
          <mxGeometry relative="1" as="geometry" />
        </mxCell>
        <mxCell id="YExKs65hsdtcWrgT1Xq_-194" style="edgeStyle=orthogonalEdgeStyle;rounded=0;orthogonalLoop=1;jettySize=auto;html=1;exitX=0.5;exitY=1;exitDx=0;exitDy=0;entryX=0.584;entryY=0.032;entryDx=0;entryDy=0;entryPerimeter=0;fontFamily=Helvetica;fontSize=12;fontColor=default;" parent="1" source="zM6HXIATucZkBweVf0K6-6" target="YExKs65hsdtcWrgT1Xq_-93" edge="1">
          <mxGeometry relative="1" as="geometry" />
        </mxCell>
        <mxCell id="zM6HXIATucZkBweVf0K6-6" value="&lt;font style=&quot;font-size: 14px;&quot;&gt;&lt;b&gt;Course&lt;br&gt;&lt;/b&gt;&lt;/font&gt;" style="rounded=0;whiteSpace=wrap;html=1;" parent="1" vertex="1">
          <mxGeometry x="920.22" y="296.23" width="100" height="36.01" as="geometry" />
        </mxCell>
        <mxCell id="zM6HXIATucZkBweVf0K6-141" style="edgeStyle=orthogonalEdgeStyle;rounded=0;orthogonalLoop=1;jettySize=auto;html=1;exitX=0;exitY=0;exitDx=0;exitDy=0;entryX=1;entryY=1;entryDx=0;entryDy=0;" parent="1" source="zM6HXIATucZkBweVf0K6-7" target="zM6HXIATucZkBweVf0K6-128" edge="1">
          <mxGeometry relative="1" as="geometry" />
        </mxCell>
        <mxCell id="YExKs65hsdtcWrgT1Xq_-68" style="edgeStyle=orthogonalEdgeStyle;rounded=0;orthogonalLoop=1;jettySize=auto;html=1;exitX=0.75;exitY=0;exitDx=0;exitDy=0;entryX=0.686;entryY=1.322;entryDx=0;entryDy=0;entryPerimeter=0;fontFamily=Helvetica;fontSize=12;fontColor=default;" parent="1" source="zM6HXIATucZkBweVf0K6-7" target="zM6HXIATucZkBweVf0K6-135" edge="1">
          <mxGeometry relative="1" as="geometry" />
        </mxCell>
        <mxCell id="YExKs65hsdtcWrgT1Xq_-69" style="edgeStyle=orthogonalEdgeStyle;rounded=0;orthogonalLoop=1;jettySize=auto;html=1;exitX=0.5;exitY=0;exitDx=0;exitDy=0;entryX=1;entryY=1;entryDx=0;entryDy=0;fontFamily=Helvetica;fontSize=12;fontColor=default;" parent="1" source="zM6HXIATucZkBweVf0K6-7" target="zM6HXIATucZkBweVf0K6-124" edge="1">
          <mxGeometry relative="1" as="geometry" />
        </mxCell>
        <mxCell id="YExKs65hsdtcWrgT1Xq_-70" style="edgeStyle=orthogonalEdgeStyle;rounded=0;orthogonalLoop=1;jettySize=auto;html=1;exitX=0.25;exitY=0;exitDx=0;exitDy=0;entryX=0.5;entryY=1;entryDx=0;entryDy=0;fontFamily=Helvetica;fontSize=12;fontColor=default;" parent="1" source="zM6HXIATucZkBweVf0K6-7" target="zM6HXIATucZkBweVf0K6-133" edge="1">
          <mxGeometry relative="1" as="geometry" />
        </mxCell>
        <mxCell id="YExKs65hsdtcWrgT1Xq_-72" style="edgeStyle=orthogonalEdgeStyle;rounded=0;orthogonalLoop=1;jettySize=auto;html=1;exitX=0;exitY=0.25;exitDx=0;exitDy=0;entryX=1;entryY=0.5;entryDx=0;entryDy=0;fontFamily=Helvetica;fontSize=12;fontColor=default;" parent="1" source="zM6HXIATucZkBweVf0K6-7" target="zM6HXIATucZkBweVf0K6-121" edge="1">
          <mxGeometry relative="1" as="geometry">
            <Array as="points">
              <mxPoint x="193" y="515" />
              <mxPoint x="100" y="515" />
              <mxPoint x="100" y="465" />
            </Array>
          </mxGeometry>
        </mxCell>
        <mxCell id="YExKs65hsdtcWrgT1Xq_-73" style="edgeStyle=orthogonalEdgeStyle;rounded=0;orthogonalLoop=1;jettySize=auto;html=1;exitX=0;exitY=0;exitDx=0;exitDy=0;entryX=0.655;entryY=0.844;entryDx=0;entryDy=0;entryPerimeter=0;fontFamily=Helvetica;fontSize=12;fontColor=default;" parent="1" source="zM6HXIATucZkBweVf0K6-7" target="zM6HXIATucZkBweVf0K6-139" edge="1">
          <mxGeometry relative="1" as="geometry">
            <Array as="points">
              <mxPoint x="193" y="505" />
              <mxPoint x="160" y="505" />
              <mxPoint x="160" y="495" />
              <mxPoint x="110" y="495" />
            </Array>
          </mxGeometry>
        </mxCell>
        <mxCell id="YExKs65hsdtcWrgT1Xq_-74" style="edgeStyle=orthogonalEdgeStyle;rounded=0;orthogonalLoop=1;jettySize=auto;html=1;exitX=0;exitY=0.25;exitDx=0;exitDy=0;entryX=1;entryY=0.5;entryDx=0;entryDy=0;fontFamily=Helvetica;fontSize=12;fontColor=default;" parent="1" source="zM6HXIATucZkBweVf0K6-7" target="zM6HXIATucZkBweVf0K6-122" edge="1">
          <mxGeometry relative="1" as="geometry">
            <Array as="points">
              <mxPoint x="90" y="530" />
              <mxPoint x="90" y="495" />
              <mxPoint x="65" y="495" />
            </Array>
          </mxGeometry>
        </mxCell>
        <mxCell id="YExKs65hsdtcWrgT1Xq_-75" style="edgeStyle=orthogonalEdgeStyle;rounded=0;orthogonalLoop=1;jettySize=auto;html=1;exitX=0;exitY=0.5;exitDx=0;exitDy=0;entryX=1;entryY=0.5;entryDx=0;entryDy=0;fontFamily=Helvetica;fontSize=12;fontColor=default;" parent="1" source="zM6HXIATucZkBweVf0K6-7" target="zM6HXIATucZkBweVf0K6-140" edge="1">
          <mxGeometry relative="1" as="geometry">
            <Array as="points">
              <mxPoint x="80" y="541" />
              <mxPoint x="80" y="522" />
            </Array>
          </mxGeometry>
        </mxCell>
        <mxCell id="YExKs65hsdtcWrgT1Xq_-76" style="edgeStyle=orthogonalEdgeStyle;rounded=0;orthogonalLoop=1;jettySize=auto;html=1;exitX=0;exitY=0.75;exitDx=0;exitDy=0;entryX=1;entryY=1;entryDx=0;entryDy=0;fontFamily=Helvetica;fontSize=12;fontColor=default;" parent="1" source="zM6HXIATucZkBweVf0K6-7" target="zM6HXIATucZkBweVf0K6-136" edge="1">
          <mxGeometry relative="1" as="geometry" />
        </mxCell>
        <mxCell id="YExKs65hsdtcWrgT1Xq_-77" style="edgeStyle=orthogonalEdgeStyle;rounded=0;orthogonalLoop=1;jettySize=auto;html=1;exitX=0;exitY=1;exitDx=0;exitDy=0;entryX=1;entryY=0.5;entryDx=0;entryDy=0;fontFamily=Helvetica;fontSize=12;fontColor=default;" parent="1" source="zM6HXIATucZkBweVf0K6-7" target="zM6HXIATucZkBweVf0K6-138" edge="1">
          <mxGeometry relative="1" as="geometry">
            <Array as="points">
              <mxPoint x="135" y="562" />
              <mxPoint x="135" y="581" />
            </Array>
          </mxGeometry>
        </mxCell>
        <mxCell id="YExKs65hsdtcWrgT1Xq_-78" style="edgeStyle=orthogonalEdgeStyle;rounded=0;orthogonalLoop=1;jettySize=auto;html=1;exitX=0;exitY=1;exitDx=0;exitDy=0;entryX=1;entryY=0;entryDx=0;entryDy=0;fontFamily=Helvetica;fontSize=12;fontColor=default;" parent="1" source="zM6HXIATucZkBweVf0K6-7" target="zM6HXIATucZkBweVf0K6-137" edge="1">
          <mxGeometry relative="1" as="geometry">
            <Array as="points">
              <mxPoint x="160" y="562" />
              <mxPoint x="160" y="595" />
              <mxPoint x="77" y="595" />
            </Array>
          </mxGeometry>
        </mxCell>
        <mxCell id="YExKs65hsdtcWrgT1Xq_-79" style="edgeStyle=orthogonalEdgeStyle;rounded=0;orthogonalLoop=1;jettySize=auto;html=1;exitX=0;exitY=1;exitDx=0;exitDy=0;entryX=1;entryY=0;entryDx=0;entryDy=0;fontFamily=Helvetica;fontSize=12;fontColor=default;" parent="1" source="zM6HXIATucZkBweVf0K6-7" target="zM6HXIATucZkBweVf0K6-131" edge="1">
          <mxGeometry relative="1" as="geometry">
            <Array as="points">
              <mxPoint x="170" y="562" />
              <mxPoint x="170" y="605" />
              <mxPoint x="146" y="605" />
            </Array>
          </mxGeometry>
        </mxCell>
        <mxCell id="YExKs65hsdtcWrgT1Xq_-80" style="edgeStyle=orthogonalEdgeStyle;rounded=0;orthogonalLoop=1;jettySize=auto;html=1;exitX=0.25;exitY=1;exitDx=0;exitDy=0;entryX=0.5;entryY=0;entryDx=0;entryDy=0;fontFamily=Helvetica;fontSize=12;fontColor=default;" parent="1" source="zM6HXIATucZkBweVf0K6-7" target="zM6HXIATucZkBweVf0K6-261" edge="1">
          <mxGeometry relative="1" as="geometry">
            <Array as="points">
              <mxPoint x="180" y="562" />
              <mxPoint x="180" y="615" />
              <mxPoint x="160" y="615" />
            </Array>
          </mxGeometry>
        </mxCell>
        <mxCell id="YExKs65hsdtcWrgT1Xq_-81" style="edgeStyle=orthogonalEdgeStyle;rounded=0;orthogonalLoop=1;jettySize=auto;html=1;entryX=0.5;entryY=0;entryDx=0;entryDy=0;fontFamily=Helvetica;fontSize=12;fontColor=default;" parent="1" target="zM6HXIATucZkBweVf0K6-126" edge="1">
          <mxGeometry relative="1" as="geometry">
            <mxPoint x="203" y="555" as="sourcePoint" />
          </mxGeometry>
        </mxCell>
        <mxCell id="YExKs65hsdtcWrgT1Xq_-117" style="edgeStyle=orthogonalEdgeStyle;rounded=0;orthogonalLoop=1;jettySize=auto;html=1;exitX=1;exitY=0.5;exitDx=0;exitDy=0;entryX=0;entryY=0.5;entryDx=0;entryDy=0;fontFamily=Helvetica;fontSize=12;fontColor=default;" parent="1" source="zM6HXIATucZkBweVf0K6-7" target="YExKs65hsdtcWrgT1Xq_-114" edge="1">
          <mxGeometry relative="1" as="geometry" />
        </mxCell>
        <mxCell id="YExKs65hsdtcWrgT1Xq_-125" style="edgeStyle=orthogonalEdgeStyle;rounded=0;orthogonalLoop=1;jettySize=auto;html=1;exitX=1;exitY=0.75;exitDx=0;exitDy=0;entryX=0;entryY=0.5;entryDx=0;entryDy=0;fontFamily=Helvetica;fontSize=12;fontColor=default;" parent="1" source="zM6HXIATucZkBweVf0K6-7" target="YExKs65hsdtcWrgT1Xq_-123" edge="1">
          <mxGeometry relative="1" as="geometry" />
        </mxCell>
        <mxCell id="YExKs65hsdtcWrgT1Xq_-130" style="edgeStyle=orthogonalEdgeStyle;rounded=0;orthogonalLoop=1;jettySize=auto;html=1;exitX=0.75;exitY=1;exitDx=0;exitDy=0;entryX=0;entryY=0.5;entryDx=0;entryDy=0;fontFamily=Helvetica;fontSize=12;fontColor=default;" parent="1" source="zM6HXIATucZkBweVf0K6-7" target="YExKs65hsdtcWrgT1Xq_-127" edge="1">
          <mxGeometry relative="1" as="geometry" />
        </mxCell>
        <mxCell id="YExKs65hsdtcWrgT1Xq_-142" style="edgeStyle=orthogonalEdgeStyle;rounded=0;orthogonalLoop=1;jettySize=auto;html=1;exitX=1;exitY=0;exitDx=0;exitDy=0;fontFamily=Helvetica;fontSize=12;fontColor=default;" parent="1" source="zM6HXIATucZkBweVf0K6-7" edge="1">
          <mxGeometry relative="1" as="geometry">
            <mxPoint x="370.0000000000002" y="340" as="targetPoint" />
            <Array as="points">
              <mxPoint x="283" y="390" />
              <mxPoint x="371" y="390" />
              <mxPoint x="371" y="340" />
            </Array>
          </mxGeometry>
        </mxCell>
        <mxCell id="zM6HXIATucZkBweVf0K6-7" value="&lt;font style=&quot;font-size: 14px;&quot;&gt;&lt;b&gt;Student&lt;br&gt;&lt;/b&gt;&lt;/font&gt;" style="rounded=0;whiteSpace=wrap;html=1;" parent="1" vertex="1">
          <mxGeometry x="192.66" y="519.86" width="90" height="42.02" as="geometry" />
        </mxCell>
        <mxCell id="YExKs65hsdtcWrgT1Xq_-85" style="edgeStyle=orthogonalEdgeStyle;rounded=0;orthogonalLoop=1;jettySize=auto;html=1;exitX=0.75;exitY=0;exitDx=0;exitDy=0;entryX=0;entryY=0.5;entryDx=0;entryDy=0;fontFamily=Helvetica;fontSize=12;fontColor=default;" parent="1" source="zM6HXIATucZkBweVf0K6-9" target="zM6HXIATucZkBweVf0K6-157" edge="1">
          <mxGeometry relative="1" as="geometry" />
        </mxCell>
        <mxCell id="YExKs65hsdtcWrgT1Xq_-86" style="edgeStyle=orthogonalEdgeStyle;rounded=0;orthogonalLoop=1;jettySize=auto;html=1;exitX=1;exitY=0.25;exitDx=0;exitDy=0;entryX=0;entryY=0.5;entryDx=0;entryDy=0;fontFamily=Helvetica;fontSize=12;fontColor=default;" parent="1" source="zM6HXIATucZkBweVf0K6-9" target="zM6HXIATucZkBweVf0K6-165" edge="1">
          <mxGeometry relative="1" as="geometry" />
        </mxCell>
        <mxCell id="YExKs65hsdtcWrgT1Xq_-87" style="edgeStyle=orthogonalEdgeStyle;rounded=0;orthogonalLoop=1;jettySize=auto;html=1;exitX=1;exitY=0.75;exitDx=0;exitDy=0;entryX=0;entryY=0;entryDx=0;entryDy=0;fontFamily=Helvetica;fontSize=12;fontColor=default;" parent="1" source="zM6HXIATucZkBweVf0K6-9" target="zM6HXIATucZkBweVf0K6-159" edge="1">
          <mxGeometry relative="1" as="geometry" />
        </mxCell>
        <mxCell id="YExKs65hsdtcWrgT1Xq_-88" style="edgeStyle=orthogonalEdgeStyle;rounded=0;orthogonalLoop=1;jettySize=auto;html=1;exitX=1;exitY=1;exitDx=0;exitDy=0;entryX=0.302;entryY=-0.073;entryDx=0;entryDy=0;entryPerimeter=0;fontFamily=Helvetica;fontSize=12;fontColor=default;" parent="1" source="zM6HXIATucZkBweVf0K6-9" target="zM6HXIATucZkBweVf0K6-170" edge="1">
          <mxGeometry relative="1" as="geometry" />
        </mxCell>
        <mxCell id="YExKs65hsdtcWrgT1Xq_-89" style="edgeStyle=orthogonalEdgeStyle;rounded=0;orthogonalLoop=1;jettySize=auto;html=1;exitX=0.75;exitY=1;exitDx=0;exitDy=0;entryX=1;entryY=0;entryDx=0;entryDy=0;fontFamily=Helvetica;fontSize=12;fontColor=default;" parent="1" source="zM6HXIATucZkBweVf0K6-9" target="zM6HXIATucZkBweVf0K6-164" edge="1">
          <mxGeometry relative="1" as="geometry" />
        </mxCell>
        <mxCell id="YExKs65hsdtcWrgT1Xq_-90" style="edgeStyle=orthogonalEdgeStyle;rounded=0;orthogonalLoop=1;jettySize=auto;html=1;exitX=0.5;exitY=1;exitDx=0;exitDy=0;entryX=1;entryY=0;entryDx=0;entryDy=0;fontFamily=Helvetica;fontSize=12;fontColor=default;" parent="1" source="zM6HXIATucZkBweVf0K6-9" target="zM6HXIATucZkBweVf0K6-163" edge="1">
          <mxGeometry relative="1" as="geometry" />
        </mxCell>
        <mxCell id="YExKs65hsdtcWrgT1Xq_-91" style="edgeStyle=orthogonalEdgeStyle;rounded=0;orthogonalLoop=1;jettySize=auto;html=1;exitX=0.25;exitY=1;exitDx=0;exitDy=0;entryX=0.5;entryY=0;entryDx=0;entryDy=0;fontFamily=Helvetica;fontSize=12;fontColor=default;" parent="1" source="zM6HXIATucZkBweVf0K6-9" target="zM6HXIATucZkBweVf0K6-162" edge="1">
          <mxGeometry relative="1" as="geometry">
            <Array as="points">
              <mxPoint x="942" y="790" />
              <mxPoint x="895" y="790" />
            </Array>
          </mxGeometry>
        </mxCell>
        <mxCell id="YExKs65hsdtcWrgT1Xq_-92" style="edgeStyle=orthogonalEdgeStyle;rounded=0;orthogonalLoop=1;jettySize=auto;html=1;exitX=0;exitY=1;exitDx=0;exitDy=0;entryX=0.5;entryY=0;entryDx=0;entryDy=0;fontFamily=Helvetica;fontSize=12;fontColor=default;" parent="1" source="zM6HXIATucZkBweVf0K6-9" target="zM6HXIATucZkBweVf0K6-161" edge="1">
          <mxGeometry relative="1" as="geometry" />
        </mxCell>
        <mxCell id="YExKs65hsdtcWrgT1Xq_-129" style="edgeStyle=orthogonalEdgeStyle;rounded=0;orthogonalLoop=1;jettySize=auto;html=1;exitX=0;exitY=0.5;exitDx=0;exitDy=0;entryX=1;entryY=0.5;entryDx=0;entryDy=0;fontFamily=Helvetica;fontSize=12;fontColor=default;" parent="1" source="zM6HXIATucZkBweVf0K6-9" target="YExKs65hsdtcWrgT1Xq_-127" edge="1">
          <mxGeometry relative="1" as="geometry" />
        </mxCell>
        <mxCell id="zM6HXIATucZkBweVf0K6-9" value="&lt;font style=&quot;font-size: 14px;&quot;&gt;&lt;b&gt;Questions&lt;br&gt;&lt;/b&gt;&lt;/font&gt;" style="rounded=0;whiteSpace=wrap;html=1;" parent="1" vertex="1">
          <mxGeometry x="919.6800000000001" y="717" width="88.13" height="40" as="geometry" />
        </mxCell>
        <mxCell id="YExKs65hsdtcWrgT1Xq_-120" style="edgeStyle=orthogonalEdgeStyle;rounded=0;orthogonalLoop=1;jettySize=auto;html=1;entryX=0.5;entryY=0;entryDx=0;entryDy=0;fontFamily=Helvetica;fontSize=12;fontColor=default;" parent="1" source="zM6HXIATucZkBweVf0K6-58" target="zM6HXIATucZkBweVf0K6-5" edge="1">
          <mxGeometry relative="1" as="geometry" />
        </mxCell>
        <mxCell id="zM6HXIATucZkBweVf0K6-58" value="Create" style="rhombus;whiteSpace=wrap;html=1;" parent="1" vertex="1">
          <mxGeometry x="732.19" y="462.23" width="77.81" height="40" as="geometry" />
        </mxCell>
        <mxCell id="zM6HXIATucZkBweVf0K6-74" value="&lt;b&gt;&lt;u&gt;branch_ID&lt;/u&gt;&lt;/b&gt;" style="ellipse;whiteSpace=wrap;html=1;" parent="1" vertex="1">
          <mxGeometry x="183.13" y="25.499999999999993" width="70" height="24.01" as="geometry" />
        </mxCell>
        <mxCell id="zM6HXIATucZkBweVf0K6-75" value="&lt;b&gt;Location&lt;/b&gt;" style="ellipse;whiteSpace=wrap;html=1;" parent="1" vertex="1">
          <mxGeometry x="215.51000000000005" y="64.50999999999999" width="64.74" height="19.7" as="geometry" />
        </mxCell>
        <mxCell id="zM6HXIATucZkBweVf0K6-76" value="&lt;b&gt;city&lt;/b&gt;" style="ellipse;whiteSpace=wrap;html=1;" parent="1" vertex="1">
          <mxGeometry x="96.41999999999999" y="22.650000000000006" width="50" height="19.7" as="geometry" />
        </mxCell>
        <mxCell id="zM6HXIATucZkBweVf0K6-81" value="&lt;b&gt;&lt;u&gt;track_ID&lt;/u&gt;&lt;/b&gt;" style="ellipse;whiteSpace=wrap;html=1;" parent="1" vertex="1">
          <mxGeometry x="884.22" y="46.35999999999999" width="56.16" height="24.01" as="geometry" />
        </mxCell>
        <mxCell id="zM6HXIATucZkBweVf0K6-82" value="&lt;b&gt;track_name&lt;/b&gt;" style="ellipse;whiteSpace=wrap;html=1;" parent="1" vertex="1">
          <mxGeometry x="981.4927966689372" y="42.34729603729611" width="70.92788463392124" height="24.00932400932402" as="geometry" />
        </mxCell>
        <mxCell id="zM6HXIATucZkBweVf0K6-83" value="&lt;b&gt;price&lt;/b&gt;" style="ellipse;whiteSpace=wrap;html=1;" parent="1" vertex="1">
          <mxGeometry x="339.19000000000017" y="19.999999999999993" width="44.53" height="17.43" as="geometry" />
        </mxCell>
        <mxCell id="zM6HXIATucZkBweVf0K6-86" value="&lt;b&gt;hours&lt;/b&gt;" style="ellipse;whiteSpace=wrap;html=1;" parent="1" vertex="1">
          <mxGeometry x="1049.1100000000001" y="59.86999999999999" width="44.53" height="17.49" as="geometry" />
        </mxCell>
        <mxCell id="zM6HXIATucZkBweVf0K6-94" value="&lt;b&gt;description&lt;/b&gt;" style="ellipse;whiteSpace=wrap;html=1;" parent="1" vertex="1">
          <mxGeometry x="837.1800000000001" y="587.6099999999999" width="68.55" height="22.92" as="geometry" />
        </mxCell>
        <mxCell id="zM6HXIATucZkBweVf0K6-97" value="&lt;b&gt;&lt;u&gt;exam_id&lt;/u&gt;&lt;/b&gt;" style="ellipse;whiteSpace=wrap;html=1;" parent="1" vertex="1">
          <mxGeometry x="826.1163711151373" y="553.8903962703963" width="54.42832629220004" height="29.80757575757576" as="geometry" />
        </mxCell>
        <mxCell id="zM6HXIATucZkBweVf0K6-99" value="&lt;b style=&quot;border-color: var(--border-color);&quot;&gt;T&amp;amp;F&lt;/b&gt;" style="ellipse;whiteSpace=wrap;html=1;" parent="1" vertex="1">
          <mxGeometry x="668.9154207459374" y="610.5272534258602" width="55.77544548213406" height="21.50976289115638" as="geometry" />
        </mxCell>
        <mxCell id="zM6HXIATucZkBweVf0K6-101" value="&lt;b style=&quot;border-color: var(--border-color);&quot;&gt;Choice&lt;/b&gt;" style="ellipse;whiteSpace=wrap;html=1;" parent="1" vertex="1">
          <mxGeometry x="767.4877003124765" y="685.9897435897437" width="55.77544548213406" height="21.50976289115638" as="geometry" />
        </mxCell>
        <mxCell id="zM6HXIATucZkBweVf0K6-108" value="&lt;b style=&quot;border-color: var(--border-color);&quot;&gt;start_date&lt;/b&gt;" style="ellipse;whiteSpace=wrap;html=1;" parent="1" vertex="1">
          <mxGeometry x="689.69" y="664.4799999999999" width="70" height="21.51" as="geometry" />
        </mxCell>
        <mxCell id="zM6HXIATucZkBweVf0K6-109" value="&lt;b style=&quot;border-color: var(--border-color);&quot;&gt;end_date&lt;/b&gt;" style="ellipse;whiteSpace=wrap;html=1;" parent="1" vertex="1">
          <mxGeometry x="814.22" y="621.04" width="70" height="21.51" as="geometry" />
        </mxCell>
        <mxCell id="zM6HXIATucZkBweVf0K6-113" value="&lt;b style=&quot;border-color: var(--border-color);&quot;&gt;title&lt;/b&gt;" style="ellipse;whiteSpace=wrap;html=1;" parent="1" vertex="1">
          <mxGeometry x="823.2677003124764" y="664.4797435897437" width="55.77544548213406" height="21.50976289115638" as="geometry" />
        </mxCell>
        <mxCell id="zM6HXIATucZkBweVf0K6-116" value="&lt;b&gt;std_instr_rate&lt;/b&gt;" style="ellipse;whiteSpace=wrap;html=1;fillColor=#FFFFFF;" parent="1" vertex="1">
          <mxGeometry x="499" y="455" width="101.74" height="34.12" as="geometry" />
        </mxCell>
        <mxCell id="zM6HXIATucZkBweVf0K6-121" value="&lt;b&gt;L.Name&lt;/b&gt;" style="ellipse;whiteSpace=wrap;html=1;" parent="1" vertex="1">
          <mxGeometry x="10" y="455.0000000000001" width="56.88" height="19.74" as="geometry" />
        </mxCell>
        <mxCell id="zM6HXIATucZkBweVf0K6-124" value="&lt;b&gt;E-mail&lt;/b&gt;" style="ellipse;whiteSpace=wrap;html=1;" parent="1" vertex="1">
          <mxGeometry x="194.89000000000001" y="458.28" width="49.07" height="14.48" as="geometry" />
        </mxCell>
        <mxCell id="zM6HXIATucZkBweVf0K6-126" value="&lt;b&gt;Gender&lt;/b&gt;" style="ellipse;whiteSpace=wrap;html=1;" parent="1" vertex="1">
          <mxGeometry x="176.74999999999994" y="614.36" width="52.33" height="20" as="geometry" />
        </mxCell>
        <mxCell id="zM6HXIATucZkBweVf0K6-128" value="&lt;b&gt;F.Name&lt;/b&gt;" style="ellipse;whiteSpace=wrap;html=1;" parent="1" vertex="1">
          <mxGeometry x="117.59" y="455" width="61.63" height="17.76" as="geometry" />
        </mxCell>
        <mxCell id="zM6HXIATucZkBweVf0K6-131" value="&lt;b&gt;gotAjob&lt;/b&gt;" style="ellipse;whiteSpace=wrap;html=1;" parent="1" vertex="1">
          <mxGeometry x="90.11000000000001" y="615" width="65.07" height="19.36" as="geometry" />
        </mxCell>
        <mxCell id="zM6HXIATucZkBweVf0K6-133" value="&lt;b&gt;Password&lt;/b&gt;" style="ellipse;whiteSpace=wrap;html=1;" parent="1" vertex="1">
          <mxGeometry x="156.69" y="428.11" width="60" height="20" as="geometry" />
        </mxCell>
        <mxCell id="zM6HXIATucZkBweVf0K6-135" value="&lt;b&gt;&lt;u&gt;SSN&lt;/u&gt;&lt;/b&gt;" style="ellipse;whiteSpace=wrap;html=1;" parent="1" vertex="1">
          <mxGeometry x="229.32999999999998" y="428.19999999999993" width="45.51" height="19.91" as="geometry" />
        </mxCell>
        <mxCell id="zM6HXIATucZkBweVf0K6-137" value="&lt;b&gt;BD&lt;/b&gt;" style="ellipse;whiteSpace=wrap;html=1;" parent="1" vertex="1">
          <mxGeometry x="29.38000000000001" y="605" width="54.76" height="16.23" as="geometry" />
        </mxCell>
        <mxCell id="zM6HXIATucZkBweVf0K6-138" value="&lt;b&gt;graduated&lt;/b&gt;" style="ellipse;whiteSpace=wrap;html=1;" parent="1" vertex="1">
          <mxGeometry x="7.939999999999998" y="572.75" width="70" height="16.23" as="geometry" />
        </mxCell>
        <mxCell id="zM6HXIATucZkBweVf0K6-139" value="&lt;b&gt;graduation_date&lt;/b&gt;" style="ellipse;whiteSpace=wrap;html=1;" parent="1" vertex="1">
          <mxGeometry x="36.309999999999995" y="428.11" width="112.56" height="20" as="geometry" />
        </mxCell>
        <mxCell id="zM6HXIATucZkBweVf0K6-140" value="&lt;b&gt;city&lt;/b&gt;" style="ellipse;whiteSpace=wrap;html=1;" parent="1" vertex="1">
          <mxGeometry x="9.040000000000001" y="513.86" width="54.76" height="16.23" as="geometry" />
        </mxCell>
        <mxCell id="zM6HXIATucZkBweVf0K6-157" value="&lt;b&gt;question&lt;/b&gt;" style="ellipse;whiteSpace=wrap;html=1;fillColor=#FFFFFF;" parent="1" vertex="1">
          <mxGeometry x="1020.2700000000001" y="685.99" width="70.09" height="24.01" as="geometry" />
        </mxCell>
        <mxCell id="zM6HXIATucZkBweVf0K6-159" value="&lt;b&gt;Q_Type&lt;/b&gt;" style="ellipse;whiteSpace=wrap;html=1;" parent="1" vertex="1">
          <mxGeometry x="1023.9100000000002" y="760" width="63.44" height="24.01" as="geometry" />
        </mxCell>
        <mxCell id="zM6HXIATucZkBweVf0K6-161" value="&lt;b&gt;A&lt;/b&gt;" style="ellipse;whiteSpace=wrap;html=1;" parent="1" vertex="1">
          <mxGeometry x="840" y="806.85" width="35.58" height="23.15" as="geometry" />
        </mxCell>
        <mxCell id="zM6HXIATucZkBweVf0K6-162" value="&lt;b&gt;B&lt;/b&gt;" style="ellipse;whiteSpace=wrap;html=1;" parent="1" vertex="1">
          <mxGeometry x="879.04" y="806.8499999999999" width="31.1" height="21.72" as="geometry" />
        </mxCell>
        <mxCell id="zM6HXIATucZkBweVf0K6-163" value="&lt;b&gt;C&lt;/b&gt;" style="ellipse;whiteSpace=wrap;html=1;" parent="1" vertex="1">
          <mxGeometry x="914.8" y="807.7600000000001" width="36.58" height="20.81" as="geometry" />
        </mxCell>
        <mxCell id="zM6HXIATucZkBweVf0K6-164" value="&lt;b&gt;D&lt;/b&gt;" style="ellipse;whiteSpace=wrap;html=1;" parent="1" vertex="1">
          <mxGeometry x="955" y="807.76" width="35.46" height="20.81" as="geometry" />
        </mxCell>
        <mxCell id="zM6HXIATucZkBweVf0K6-165" value="&lt;b&gt;&lt;u&gt;Q_ID&lt;/u&gt;&lt;/b&gt;" style="ellipse;whiteSpace=wrap;html=1;" parent="1" vertex="1">
          <mxGeometry x="1035.4" y="717.99" width="58.24" height="24.01" as="geometry" />
        </mxCell>
        <mxCell id="zM6HXIATucZkBweVf0K6-170" value="&lt;b&gt;model_answer&lt;/b&gt;" style="ellipse;whiteSpace=wrap;html=1;fillColor=#FFFFFF;" parent="1" vertex="1">
          <mxGeometry x="994.9900000000001" y="807.7600000000001" width="92.36" height="24.01" as="geometry" />
        </mxCell>
        <mxCell id="zM6HXIATucZkBweVf0K6-200" value="&lt;b&gt;&lt;u&gt;course_ID&lt;/u&gt;&lt;/b&gt;" style="ellipse;whiteSpace=wrap;html=1;" parent="1" vertex="1">
          <mxGeometry x="1016.99" y="370" width="76.65" height="29.28" as="geometry" />
        </mxCell>
        <mxCell id="zM6HXIATucZkBweVf0K6-202" value="&lt;b&gt;description&lt;/b&gt;" style="ellipse;whiteSpace=wrap;html=1;" parent="1" vertex="1">
          <mxGeometry x="1009.58" y="260.71999999999997" width="84.06" height="25.24" as="geometry" />
        </mxCell>
        <mxCell id="zM6HXIATucZkBweVf0K6-205" value="&lt;b&gt;course_name&lt;/b&gt;" style="ellipse;whiteSpace=wrap;html=1;" parent="1" vertex="1">
          <mxGeometry x="1005.58" y="338.7999999999999" width="88.06" height="26.7" as="geometry" />
        </mxCell>
        <mxCell id="zM6HXIATucZkBweVf0K6-214" value="&lt;b&gt;std_crs_rate&lt;/b&gt;" style="ellipse;whiteSpace=wrap;html=1;fillColor=#FFFFFF;" parent="1" vertex="1">
          <mxGeometry x="339.19000000000005" y="481.25" width="89.07" height="25.73" as="geometry" />
        </mxCell>
        <mxCell id="zM6HXIATucZkBweVf0K6-216" value="&lt;b&gt;std_Q_grade&lt;/b&gt;" style="ellipse;whiteSpace=wrap;html=1;fillColor=#FFFFFF;" parent="1" vertex="1">
          <mxGeometry x="469.40000000000003" y="683.49" width="94.32" height="24.01" as="geometry" />
        </mxCell>
        <mxCell id="zM6HXIATucZkBweVf0K6-217" value="&lt;b&gt;St_Answer&lt;/b&gt;" style="ellipse;whiteSpace=wrap;html=1;" parent="1" vertex="1">
          <mxGeometry x="347.35" y="798.91" width="72.75" height="31.09" as="geometry" />
        </mxCell>
        <mxCell id="zM6HXIATucZkBweVf0K6-230" value="&lt;b&gt;Gender&lt;/b&gt;" style="ellipse;whiteSpace=wrap;html=1;" parent="1" vertex="1">
          <mxGeometry x="136.07000000000022" y="150.84999999999985" width="70.68" height="19.3" as="geometry" />
        </mxCell>
        <mxCell id="zM6HXIATucZkBweVf0K6-231" value="&lt;b&gt;L.Name&lt;/b&gt;" style="ellipse;whiteSpace=wrap;html=1;" parent="1" vertex="1">
          <mxGeometry x="233.45" y="200.2200000000001" width="56.72" height="18.14" as="geometry" />
        </mxCell>
        <mxCell id="zM6HXIATucZkBweVf0K6-234" value="&lt;b&gt;birthDate&lt;/b&gt;" style="ellipse;whiteSpace=wrap;html=1;" parent="1" vertex="1">
          <mxGeometry x="11.409999999999897" y="345.2199999999998" width="84.6" height="22.84" as="geometry" />
        </mxCell>
        <mxCell id="zM6HXIATucZkBweVf0K6-235" value="&lt;b&gt;E-mail&lt;/b&gt;" style="ellipse;whiteSpace=wrap;html=1;" parent="1" vertex="1">
          <mxGeometry x="26.138702831893355" y="178.444056440014" width="55.135187672618216" height="23.281892575509602" as="geometry" />
        </mxCell>
        <mxCell id="zM6HXIATucZkBweVf0K6-237" value="&lt;b&gt;phone&lt;/b&gt;" style="ellipse;whiteSpace=wrap;html=1;" parent="1" vertex="1">
          <mxGeometry x="6.640000000000093" y="256.4200000000001" width="52.84" height="24.77" as="geometry" />
        </mxCell>
        <mxCell id="zM6HXIATucZkBweVf0K6-238" value="&lt;b&gt;F.Name&lt;/b&gt;" style="ellipse;whiteSpace=wrap;html=1;" parent="1" vertex="1">
          <mxGeometry x="184.53000000000003" y="177.76000000000008" width="56.21" height="22.46" as="geometry" />
        </mxCell>
        <mxCell id="zM6HXIATucZkBweVf0K6-240" value="&lt;b&gt;Password&lt;/b&gt;" style="ellipse;whiteSpace=wrap;html=1;" parent="1" vertex="1">
          <mxGeometry x="63.28999999999992" y="150.17000000000002" width="71.98" height="27.59" as="geometry" />
        </mxCell>
        <mxCell id="zM6HXIATucZkBweVf0K6-243" value="&lt;b&gt;&lt;u&gt;SSN&lt;/u&gt;&lt;/b&gt;" style="ellipse;whiteSpace=wrap;html=1;" parent="1" vertex="1">
          <mxGeometry x="26.63999999999998" y="209.5100000000002" width="54.14" height="21.42" as="geometry" />
        </mxCell>
        <mxCell id="zM6HXIATucZkBweVf0K6-244" value="&lt;b&gt;position&lt;/b&gt;" style="ellipse;whiteSpace=wrap;html=1;" parent="1" vertex="1">
          <mxGeometry x="98.45000000000006" y="356.4999999999999" width="53.37" height="22.2" as="geometry" />
        </mxCell>
        <mxCell id="zM6HXIATucZkBweVf0K6-261" value="&lt;b&gt;social_media_link&lt;/b&gt;" style="ellipse;whiteSpace=wrap;html=1;" parent="1" vertex="1">
          <mxGeometry x="104.12999999999997" y="645" width="112.56" height="20" as="geometry" />
        </mxCell>
        <mxCell id="zM6HXIATucZkBweVf0K6-278" value="M" style="text;html=1;strokeColor=none;fillColor=none;align=center;verticalAlign=middle;whiteSpace=wrap;rounded=0;" parent="1" vertex="1">
          <mxGeometry x="539.06" width="21.37" height="30" as="geometry" />
        </mxCell>
        <mxCell id="zM6HXIATucZkBweVf0K6-287" value="&lt;b style=&quot;border-color: var(--border-color);&quot;&gt;passed&lt;/b&gt;" style="ellipse;whiteSpace=wrap;html=1;" parent="1" vertex="1">
          <mxGeometry x="357.9154207459373" y="558.0372534258602" width="55.77544548213406" height="21.50976289115638" as="geometry" />
        </mxCell>
        <mxCell id="YExKs65hsdtcWrgT1Xq_-161" style="edgeStyle=orthogonalEdgeStyle;rounded=0;orthogonalLoop=1;jettySize=auto;html=1;exitX=0;exitY=0.25;exitDx=0;exitDy=0;entryX=1;entryY=0.5;entryDx=0;entryDy=0;fontFamily=Helvetica;fontSize=12;fontColor=default;" parent="1" source="YExKs65hsdtcWrgT1Xq_-5" target="zM6HXIATucZkBweVf0K6-83" edge="1">
          <mxGeometry relative="1" as="geometry" />
        </mxCell>
        <mxCell id="YExKs65hsdtcWrgT1Xq_-5" value="" style="whiteSpace=wrap;html=1;" parent="1" vertex="1">
          <mxGeometry x="428.26000000000005" y="5.5" width="102.52" height="53.99" as="geometry" />
        </mxCell>
        <mxCell id="YExKs65hsdtcWrgT1Xq_-4" value="found in" style="rhombus;whiteSpace=wrap;html=1;" parent="1" vertex="1">
          <mxGeometry x="430.78000000000003" y="5.5" width="100" height="53.99" as="geometry" />
        </mxCell>
        <mxCell id="YExKs65hsdtcWrgT1Xq_-45" style="edgeStyle=orthogonalEdgeStyle;rounded=0;orthogonalLoop=1;jettySize=auto;html=1;exitX=0.75;exitY=1;exitDx=0;exitDy=0;entryX=0.5;entryY=0;entryDx=0;entryDy=0;fontFamily=Helvetica;fontSize=12;fontColor=default;" parent="1" source="YExKs65hsdtcWrgT1Xq_-7" target="YExKs65hsdtcWrgT1Xq_-43" edge="1">
          <mxGeometry relative="1" as="geometry">
            <Array as="points">
              <mxPoint x="641" y="190" />
              <mxPoint x="730" y="190" />
              <mxPoint x="730" y="320" />
              <mxPoint x="764" y="320" />
            </Array>
          </mxGeometry>
        </mxCell>
        <mxCell id="YExKs65hsdtcWrgT1Xq_-7" value="" style="whiteSpace=wrap;html=1;movable=1;resizable=1;rotatable=1;deletable=1;editable=1;locked=0;connectable=1;" parent="1" vertex="1">
          <mxGeometry x="563.72" y="110.85999999999999" width="102.52" height="53.99" as="geometry" />
        </mxCell>
        <mxCell id="YExKs65hsdtcWrgT1Xq_-28" style="edgeStyle=orthogonalEdgeStyle;rounded=0;orthogonalLoop=1;jettySize=auto;html=1;entryX=0.5;entryY=1;entryDx=0;entryDy=0;fontFamily=Helvetica;fontSize=12;fontColor=default;" parent="1" source="YExKs65hsdtcWrgT1Xq_-8" target="YExKs65hsdtcWrgT1Xq_-27" edge="1">
          <mxGeometry relative="1" as="geometry" />
        </mxCell>
        <mxCell id="YExKs65hsdtcWrgT1Xq_-8" value="Opened&amp;nbsp;&lt;br&gt;Tracks" style="rhombus;whiteSpace=wrap;html=1;movable=1;resizable=1;rotatable=1;deletable=1;editable=1;locked=0;connectable=1;" parent="1" vertex="1">
          <mxGeometry x="566.24" y="110.85999999999999" width="100" height="53.99" as="geometry" />
        </mxCell>
        <mxCell id="YExKs65hsdtcWrgT1Xq_-9" value="&lt;b&gt;&lt;u&gt;Round_N&lt;/u&gt;&lt;/b&gt;" style="ellipse;whiteSpace=wrap;html=1;" parent="1" vertex="1">
          <mxGeometry x="442.46000000000004" y="258.36" width="60" height="30" as="geometry" />
        </mxCell>
        <mxCell id="YExKs65hsdtcWrgT1Xq_-10" value="&lt;b&gt;&lt;u style=&quot;&quot;&gt;Year&lt;/u&gt;&lt;/b&gt;" style="ellipse;whiteSpace=wrap;html=1;" parent="1" vertex="1">
          <mxGeometry x="442.46000000000004" y="218.36" width="60" height="20" as="geometry" />
        </mxCell>
        <mxCell id="YExKs65hsdtcWrgT1Xq_-27" value="&lt;b&gt;&lt;u style=&quot;&quot;&gt;ID&lt;/u&gt;&lt;/b&gt;" style="ellipse;whiteSpace=wrap;html=1;" parent="1" vertex="1">
          <mxGeometry x="586.24" y="58.61999999999999" width="60" height="20" as="geometry" />
        </mxCell>
        <mxCell id="zM6HXIATucZkBweVf0K6-233" value="&lt;b&gt;salary&lt;/b&gt;" style="ellipse;whiteSpace=wrap;html=1;" parent="1" vertex="1">
          <mxGeometry x="6.639999999999972" y="310.2199999999999" width="65.87" height="24.75" as="geometry" />
        </mxCell>
        <mxCell id="YExKs65hsdtcWrgT1Xq_-38" value="" style="whiteSpace=wrap;html=1;" parent="1" vertex="1">
          <mxGeometry x="921.3900000000001" y="175.96" width="102.52" height="53.99" as="geometry" />
        </mxCell>
        <mxCell id="YExKs65hsdtcWrgT1Xq_-39" value="has" style="rhombus;whiteSpace=wrap;html=1;" parent="1" vertex="1">
          <mxGeometry x="923.9100000000001" y="175.96" width="100" height="53.99" as="geometry" />
        </mxCell>
        <mxCell id="YExKs65hsdtcWrgT1Xq_-59" style="edgeStyle=orthogonalEdgeStyle;rounded=0;orthogonalLoop=1;jettySize=auto;html=1;exitX=0;exitY=0.25;exitDx=0;exitDy=0;entryX=0.5;entryY=1;entryDx=0;entryDy=0;fontFamily=Helvetica;fontSize=12;fontColor=default;" parent="1" source="YExKs65hsdtcWrgT1Xq_-43" target="YExKs65hsdtcWrgT1Xq_-55" edge="1">
          <mxGeometry relative="1" as="geometry" />
        </mxCell>
        <mxCell id="YExKs65hsdtcWrgT1Xq_-61" style="edgeStyle=orthogonalEdgeStyle;rounded=0;orthogonalLoop=1;jettySize=auto;html=1;exitX=1;exitY=1;exitDx=0;exitDy=0;entryX=0;entryY=0.5;entryDx=0;entryDy=0;fontFamily=Helvetica;fontSize=12;fontColor=default;" parent="1" source="YExKs65hsdtcWrgT1Xq_-43" target="YExKs65hsdtcWrgT1Xq_-57" edge="1">
          <mxGeometry relative="1" as="geometry" />
        </mxCell>
        <mxCell id="YExKs65hsdtcWrgT1Xq_-106" style="edgeStyle=orthogonalEdgeStyle;rounded=0;orthogonalLoop=1;jettySize=auto;html=1;exitX=1;exitY=0.75;exitDx=0;exitDy=0;entryX=0;entryY=0.5;entryDx=0;entryDy=0;fontFamily=Helvetica;fontSize=12;fontColor=default;" parent="1" source="YExKs65hsdtcWrgT1Xq_-43" target="YExKs65hsdtcWrgT1Xq_-56" edge="1">
          <mxGeometry relative="1" as="geometry" />
        </mxCell>
        <mxCell id="YExKs65hsdtcWrgT1Xq_-118" style="edgeStyle=orthogonalEdgeStyle;rounded=0;orthogonalLoop=1;jettySize=auto;html=1;exitX=0.25;exitY=1;exitDx=0;exitDy=0;entryX=1;entryY=0.5;entryDx=0;entryDy=0;fontFamily=Helvetica;fontSize=12;fontColor=default;" parent="1" source="YExKs65hsdtcWrgT1Xq_-43" target="YExKs65hsdtcWrgT1Xq_-114" edge="1">
          <mxGeometry relative="1" as="geometry" />
        </mxCell>
        <mxCell id="2JMLC_-yTl61qDG-5Rj--3" style="edgeStyle=orthogonalEdgeStyle;rounded=0;orthogonalLoop=1;jettySize=auto;html=1;exitX=0.75;exitY=0;exitDx=0;exitDy=0;entryX=0.332;entryY=0.946;entryDx=0;entryDy=0;entryPerimeter=0;" parent="1" source="YExKs65hsdtcWrgT1Xq_-43" target="2JMLC_-yTl61qDG-5Rj--1" edge="1">
          <mxGeometry relative="1" as="geometry" />
        </mxCell>
        <mxCell id="YExKs65hsdtcWrgT1Xq_-43" value="" style="whiteSpace=wrap;html=1;movable=1;resizable=1;rotatable=1;deletable=1;editable=1;locked=0;connectable=1;" parent="1" vertex="1">
          <mxGeometry x="713.0200000000001" y="337.97" width="102.52" height="53.99" as="geometry" />
        </mxCell>
        <mxCell id="YExKs65hsdtcWrgT1Xq_-107" style="edgeStyle=orthogonalEdgeStyle;rounded=0;orthogonalLoop=1;jettySize=auto;html=1;entryX=0.5;entryY=0;entryDx=0;entryDy=0;fontFamily=Helvetica;fontSize=12;fontColor=default;" parent="1" source="YExKs65hsdtcWrgT1Xq_-44" target="zM6HXIATucZkBweVf0K6-58" edge="1">
          <mxGeometry relative="1" as="geometry" />
        </mxCell>
        <mxCell id="YExKs65hsdtcWrgT1Xq_-44" value="Teach" style="rhombus;whiteSpace=wrap;html=1;movable=1;resizable=1;rotatable=1;deletable=1;editable=1;locked=0;connectable=1;" parent="1" vertex="1">
          <mxGeometry x="715.5400000000001" y="337.97" width="100" height="53.99" as="geometry" />
        </mxCell>
        <mxCell id="YExKs65hsdtcWrgT1Xq_-54" style="edgeStyle=orthogonalEdgeStyle;rounded=0;orthogonalLoop=1;jettySize=auto;html=1;entryX=0.5;entryY=1;entryDx=0;entryDy=0;fontFamily=Helvetica;fontSize=12;fontColor=default;" parent="1" source="YExKs65hsdtcWrgT1Xq_-49" target="YExKs65hsdtcWrgT1Xq_-53" edge="1">
          <mxGeometry relative="1" as="geometry" />
        </mxCell>
        <mxCell id="YExKs65hsdtcWrgT1Xq_-49" value="" style="whiteSpace=wrap;html=1;movable=1;resizable=1;rotatable=1;deletable=1;editable=1;locked=0;connectable=1;" parent="1" vertex="1">
          <mxGeometry x="778.0200000000001" y="214.2" width="102.52" height="53.99" as="geometry" />
        </mxCell>
        <mxCell id="YExKs65hsdtcWrgT1Xq_-50" value="Opened&amp;nbsp;&lt;br&gt;Courses" style="rhombus;whiteSpace=wrap;html=1;movable=1;resizable=1;rotatable=1;deletable=1;editable=1;locked=0;connectable=1;" parent="1" vertex="1">
          <mxGeometry x="780.5400000000001" y="215.2" width="100" height="53.99" as="geometry" />
        </mxCell>
        <mxCell id="YExKs65hsdtcWrgT1Xq_-53" value="&lt;b&gt;price&lt;/b&gt;" style="ellipse;whiteSpace=wrap;html=1;" parent="1" vertex="1">
          <mxGeometry x="806.2800000000002" y="170.14999999999998" width="44.53" height="17.43" as="geometry" />
        </mxCell>
        <mxCell id="YExKs65hsdtcWrgT1Xq_-55" value="&lt;b&gt;Hours&lt;/b&gt;" style="ellipse;whiteSpace=wrap;html=1;" parent="1" vertex="1">
          <mxGeometry x="623.8200000000002" y="318.66999999999985" width="70.68" height="19.3" as="geometry" />
        </mxCell>
        <mxCell id="YExKs65hsdtcWrgT1Xq_-56" value="&lt;b&gt;S_Date&lt;/b&gt;" style="ellipse;whiteSpace=wrap;html=1;" parent="1" vertex="1">
          <mxGeometry x="850.81" y="377.96000000000015" width="56.72" height="18.14" as="geometry" />
        </mxCell>
        <mxCell id="YExKs65hsdtcWrgT1Xq_-57" value="&lt;b&gt;E_Date&lt;/b&gt;" style="ellipse;whiteSpace=wrap;html=1;" parent="1" vertex="1">
          <mxGeometry x="858.59" y="407.2400000000001" width="56.21" height="22.46" as="geometry" />
        </mxCell>
        <mxCell id="zM6HXIATucZkBweVf0K6-122" value="&lt;b&gt;phone&lt;/b&gt;" style="ellipse;whiteSpace=wrap;html=1;" parent="1" vertex="1">
          <mxGeometry x="9.99999999999999" y="486" width="54.76" height="16.23" as="geometry" />
        </mxCell>
        <mxCell id="zM6HXIATucZkBweVf0K6-136" value="&lt;b&gt;faculty&lt;/b&gt;" style="ellipse;whiteSpace=wrap;html=1;" parent="1" vertex="1">
          <mxGeometry x="11.05999999999999" y="545" width="54.76" height="16.23" as="geometry" />
        </mxCell>
        <mxCell id="YExKs65hsdtcWrgT1Xq_-121" style="edgeStyle=orthogonalEdgeStyle;rounded=0;orthogonalLoop=1;jettySize=auto;html=1;exitX=0.5;exitY=1;exitDx=0;exitDy=0;entryX=0.5;entryY=0;entryDx=0;entryDy=0;fontFamily=Helvetica;fontSize=12;fontColor=default;" parent="1" source="YExKs65hsdtcWrgT1Xq_-93" target="zM6HXIATucZkBweVf0K6-9" edge="1">
          <mxGeometry relative="1" as="geometry" />
        </mxCell>
        <mxCell id="YExKs65hsdtcWrgT1Xq_-93" value="contain" style="rhombus;whiteSpace=wrap;html=1;rounded=0;" parent="1" vertex="1">
          <mxGeometry x="923.75" y="579.55" width="80" height="63" as="geometry" />
        </mxCell>
        <mxCell id="YExKs65hsdtcWrgT1Xq_-151" style="edgeStyle=orthogonalEdgeStyle;rounded=0;orthogonalLoop=1;jettySize=auto;html=1;exitX=0.25;exitY=1;exitDx=0;exitDy=0;entryX=0.5;entryY=0;entryDx=0;entryDy=0;fontFamily=Helvetica;fontSize=12;fontColor=default;" parent="1" source="YExKs65hsdtcWrgT1Xq_-114" target="zM6HXIATucZkBweVf0K6-214" edge="1">
          <mxGeometry relative="1" as="geometry" />
        </mxCell>
        <mxCell id="YExKs65hsdtcWrgT1Xq_-160" style="edgeStyle=orthogonalEdgeStyle;rounded=0;orthogonalLoop=1;jettySize=auto;html=1;exitX=1;exitY=0.25;exitDx=0;exitDy=0;entryX=0;entryY=0.5;entryDx=0;entryDy=0;fontFamily=Helvetica;fontSize=12;fontColor=default;" parent="1" source="YExKs65hsdtcWrgT1Xq_-114" target="YExKs65hsdtcWrgT1Xq_-159" edge="1">
          <mxGeometry relative="1" as="geometry" />
        </mxCell>
        <mxCell id="YExKs65hsdtcWrgT1Xq_-186" style="edgeStyle=orthogonalEdgeStyle;rounded=0;orthogonalLoop=1;jettySize=auto;html=1;exitX=0.75;exitY=1;exitDx=0;exitDy=0;entryX=0;entryY=0.5;entryDx=0;entryDy=0;fontFamily=Helvetica;fontSize=12;fontColor=default;" parent="1" source="YExKs65hsdtcWrgT1Xq_-114" target="zM6HXIATucZkBweVf0K6-116" edge="1">
          <mxGeometry relative="1" as="geometry" />
        </mxCell>
        <mxCell id="YExKs65hsdtcWrgT1Xq_-114" value="" style="whiteSpace=wrap;html=1;movable=1;resizable=1;rotatable=1;deletable=1;editable=1;locked=0;connectable=1;" parent="1" vertex="1">
          <mxGeometry x="375.1200000000001" y="400.01" width="102.52" height="53.99" as="geometry" />
        </mxCell>
        <mxCell id="YExKs65hsdtcWrgT1Xq_-115" value="Study" style="rhombus;whiteSpace=wrap;html=1;movable=1;resizable=1;rotatable=1;deletable=1;editable=1;locked=0;connectable=1;" parent="1" vertex="1">
          <mxGeometry x="377.6400000000001" y="401.01" width="100" height="53.99" as="geometry" />
        </mxCell>
        <mxCell id="YExKs65hsdtcWrgT1Xq_-155" style="edgeStyle=orthogonalEdgeStyle;rounded=0;orthogonalLoop=1;jettySize=auto;html=1;exitX=1;exitY=0.25;exitDx=0;exitDy=0;entryX=0.335;entryY=0.976;entryDx=0;entryDy=0;entryPerimeter=0;fontFamily=Helvetica;fontSize=12;fontColor=default;" parent="1" source="YExKs65hsdtcWrgT1Xq_-122" target="YExKs65hsdtcWrgT1Xq_-153" edge="1">
          <mxGeometry relative="1" as="geometry" />
        </mxCell>
        <mxCell id="2JMLC_-yTl61qDG-5Rj--4" style="edgeStyle=orthogonalEdgeStyle;rounded=0;orthogonalLoop=1;jettySize=auto;html=1;exitX=0;exitY=0.75;exitDx=0;exitDy=0;entryX=1;entryY=0.5;entryDx=0;entryDy=0;" parent="1" source="YExKs65hsdtcWrgT1Xq_-122" target="zM6HXIATucZkBweVf0K6-287" edge="1">
          <mxGeometry relative="1" as="geometry">
            <Array as="points">
              <mxPoint x="456" y="570" />
              <mxPoint x="420" y="570" />
            </Array>
          </mxGeometry>
        </mxCell>
        <mxCell id="YExKs65hsdtcWrgT1Xq_-122" value="" style="whiteSpace=wrap;html=1;movable=1;resizable=1;rotatable=1;deletable=1;editable=1;locked=0;connectable=1;" parent="1" vertex="1">
          <mxGeometry x="456.1300000000001" y="522.01" width="102.52" height="53.99" as="geometry" />
        </mxCell>
        <mxCell id="YExKs65hsdtcWrgT1Xq_-123" value="examine" style="rhombus;whiteSpace=wrap;html=1;movable=1;resizable=1;rotatable=1;deletable=1;editable=1;locked=0;connectable=1;" parent="1" vertex="1">
          <mxGeometry x="458.6500000000001" y="523.01" width="100" height="53.99" as="geometry" />
        </mxCell>
        <mxCell id="YExKs65hsdtcWrgT1Xq_-133" style="edgeStyle=orthogonalEdgeStyle;rounded=0;orthogonalLoop=1;jettySize=auto;html=1;exitX=0.75;exitY=1;exitDx=0;exitDy=0;entryX=1;entryY=0.5;entryDx=0;entryDy=0;fontFamily=Helvetica;fontSize=12;fontColor=default;" parent="1" source="YExKs65hsdtcWrgT1Xq_-127" target="zM6HXIATucZkBweVf0K6-217" edge="1">
          <mxGeometry relative="1" as="geometry" />
        </mxCell>
        <mxCell id="YExKs65hsdtcWrgT1Xq_-134" style="edgeStyle=orthogonalEdgeStyle;rounded=0;orthogonalLoop=1;jettySize=auto;html=1;exitX=0.75;exitY=0;exitDx=0;exitDy=0;entryX=0;entryY=0.5;entryDx=0;entryDy=0;fontFamily=Helvetica;fontSize=12;fontColor=default;" parent="1" source="YExKs65hsdtcWrgT1Xq_-127" target="zM6HXIATucZkBweVf0K6-216" edge="1">
          <mxGeometry relative="1" as="geometry" />
        </mxCell>
        <mxCell id="YExKs65hsdtcWrgT1Xq_-127" value="" style="whiteSpace=wrap;html=1;movable=1;resizable=1;rotatable=1;deletable=1;editable=1;locked=0;connectable=1;" parent="1" vertex="1">
          <mxGeometry x="371.0200000000001" y="729.02" width="102.52" height="53.99" as="geometry" />
        </mxCell>
        <mxCell id="YExKs65hsdtcWrgT1Xq_-128" value="Answers" style="rhombus;whiteSpace=wrap;html=1;movable=1;resizable=1;rotatable=1;deletable=1;editable=1;locked=0;connectable=1;" parent="1" vertex="1">
          <mxGeometry x="373.5400000000001" y="730.02" width="100" height="53.99" as="geometry" />
        </mxCell>
        <mxCell id="YExKs65hsdtcWrgT1Xq_-135" value="&lt;b&gt;city&lt;/b&gt;" style="ellipse;whiteSpace=wrap;html=1;" parent="1" vertex="1">
          <mxGeometry x="135.02999999999997" y="378.9200000000001" width="54.76" height="16.23" as="geometry" />
        </mxCell>
        <mxCell id="YExKs65hsdtcWrgT1Xq_-149" style="edgeStyle=orthogonalEdgeStyle;rounded=0;orthogonalLoop=1;jettySize=auto;html=1;exitX=1;exitY=0.75;exitDx=0;exitDy=0;entryX=0.5;entryY=0;entryDx=0;entryDy=0;fontFamily=Helvetica;fontSize=12;fontColor=default;" parent="1" source="YExKs65hsdtcWrgT1Xq_-139" target="YExKs65hsdtcWrgT1Xq_-147" edge="1">
          <mxGeometry relative="1" as="geometry" />
        </mxCell>
        <mxCell id="YExKs65hsdtcWrgT1Xq_-139" value="" style="whiteSpace=wrap;html=1;movable=1;resizable=1;rotatable=1;deletable=1;editable=1;locked=0;connectable=1;" parent="1" vertex="1">
          <mxGeometry x="317.5800000000001" y="281.19" width="102.52" height="53.99" as="geometry" />
        </mxCell>
        <mxCell id="YExKs65hsdtcWrgT1Xq_-148" style="edgeStyle=orthogonalEdgeStyle;rounded=0;orthogonalLoop=1;jettySize=auto;html=1;exitX=0;exitY=0.5;exitDx=0;exitDy=0;entryX=0.5;entryY=0;entryDx=0;entryDy=0;fontFamily=Helvetica;fontSize=12;fontColor=default;" parent="1" source="YExKs65hsdtcWrgT1Xq_-140" target="YExKs65hsdtcWrgT1Xq_-146" edge="1">
          <mxGeometry relative="1" as="geometry" />
        </mxCell>
        <mxCell id="YExKs65hsdtcWrgT1Xq_-140" value="belong to" style="rhombus;whiteSpace=wrap;html=1;movable=1;resizable=1;rotatable=1;deletable=1;editable=1;locked=0;connectable=1;" parent="1" vertex="1">
          <mxGeometry x="320.1000000000001" y="282.19" width="100" height="53.99" as="geometry" />
        </mxCell>
        <mxCell id="YExKs65hsdtcWrgT1Xq_-146" value="&lt;b&gt;std_branch_rate&lt;/b&gt;" style="ellipse;whiteSpace=wrap;html=1;fillColor=#FFFFFF;" parent="1" vertex="1">
          <mxGeometry x="206.75" y="334.97" width="107.43" height="29.78" as="geometry" />
        </mxCell>
        <mxCell id="YExKs65hsdtcWrgT1Xq_-147" value="&lt;b&gt;std_track_rate&lt;/b&gt;" style="ellipse;whiteSpace=wrap;html=1;fillColor=#FFFFFF;" parent="1" vertex="1">
          <mxGeometry x="410" y="341.75" width="107.43" height="29.78" as="geometry" />
        </mxCell>
        <mxCell id="YExKs65hsdtcWrgT1Xq_-153" value="&lt;b&gt;Avilable&lt;/b&gt;" style="ellipse;whiteSpace=wrap;html=1;fillColor=#FFFFFF;" parent="1" vertex="1">
          <mxGeometry x="568.55" y="495.97" width="61.45" height="34.12" as="geometry" />
        </mxCell>
        <mxCell id="YExKs65hsdtcWrgT1Xq_-159" value="&lt;b&gt;Grade&lt;/b&gt;" style="ellipse;whiteSpace=wrap;html=1;fillColor=#FFFFFF;" parent="1" vertex="1">
          <mxGeometry x="517.43" y="391.00000000000006" width="61.45" height="34.12" as="geometry" />
        </mxCell>
        <mxCell id="YExKs65hsdtcWrgT1Xq_-163" value="M" style="text;html=1;strokeColor=none;fillColor=none;align=center;verticalAlign=middle;whiteSpace=wrap;rounded=0;" parent="1" vertex="1">
          <mxGeometry x="477.84000000000003" y="63.87" width="21.37" height="30" as="geometry" />
        </mxCell>
        <mxCell id="YExKs65hsdtcWrgT1Xq_-165" value="M" style="text;html=1;strokeColor=none;fillColor=none;align=center;verticalAlign=middle;whiteSpace=wrap;rounded=0;" parent="1" vertex="1">
          <mxGeometry x="347.3499999999999" y="336.18" width="21.37" height="30" as="geometry" />
        </mxCell>
        <mxCell id="YExKs65hsdtcWrgT1Xq_-166" value="&lt;b&gt;&lt;font style=&quot;font-size: 14px;&quot;&gt;1&lt;/font&gt;&lt;/b&gt;" style="text;html=1;strokeColor=none;fillColor=none;align=center;verticalAlign=middle;whiteSpace=wrap;rounded=0;" parent="1" vertex="1">
          <mxGeometry x="318.18" y="240" width="21.37" height="36.73" as="geometry" />
        </mxCell>
        <mxCell id="YExKs65hsdtcWrgT1Xq_-168" value="M" style="text;html=1;strokeColor=none;fillColor=none;align=center;verticalAlign=middle;whiteSpace=wrap;rounded=0;" parent="1" vertex="1">
          <mxGeometry x="421.0899999999999" y="280.22" width="21.37" height="30" as="geometry" />
        </mxCell>
        <mxCell id="YExKs65hsdtcWrgT1Xq_-169" value="&lt;b&gt;&lt;font style=&quot;font-size: 14px;&quot;&gt;1&lt;/font&gt;&lt;/b&gt;" style="text;html=1;strokeColor=none;fillColor=none;align=center;verticalAlign=middle;whiteSpace=wrap;rounded=0;" parent="1" vertex="1">
          <mxGeometry x="375.12" y="245.46" width="21.37" height="36.73" as="geometry" />
        </mxCell>
        <mxCell id="YExKs65hsdtcWrgT1Xq_-171" value="&lt;b&gt;&lt;font style=&quot;font-size: 14px;&quot;&gt;1&lt;/font&gt;&lt;/b&gt;" style="text;html=1;strokeColor=none;fillColor=none;align=center;verticalAlign=middle;whiteSpace=wrap;rounded=0;" parent="1" vertex="1">
          <mxGeometry x="530" y="110" width="21.37" height="36.73" as="geometry" />
        </mxCell>
        <mxCell id="YExKs65hsdtcWrgT1Xq_-172" value="&lt;b&gt;&lt;font style=&quot;font-size: 14px;&quot;&gt;1&lt;/font&gt;&lt;/b&gt;" style="text;html=1;strokeColor=none;fillColor=none;align=center;verticalAlign=middle;whiteSpace=wrap;rounded=0;" parent="1" vertex="1">
          <mxGeometry x="530.78" y="142.13000000000005" width="21.37" height="36.73" as="geometry" />
        </mxCell>
        <mxCell id="YExKs65hsdtcWrgT1Xq_-173" value="M" style="text;html=1;strokeColor=none;fillColor=none;align=center;verticalAlign=middle;whiteSpace=wrap;rounded=0;" parent="1" vertex="1">
          <mxGeometry x="588.59" y="170.15" width="21.37" height="30" as="geometry" />
        </mxCell>
        <mxCell id="YExKs65hsdtcWrgT1Xq_-174" value="&lt;b&gt;&lt;font style=&quot;font-size: 14px;&quot;&gt;1&lt;/font&gt;&lt;/b&gt;" style="text;html=1;strokeColor=none;fillColor=none;align=center;verticalAlign=middle;whiteSpace=wrap;rounded=0;" parent="1" vertex="1">
          <mxGeometry x="673.13" y="105.4" width="21.37" height="36.73" as="geometry" />
        </mxCell>
        <mxCell id="YExKs65hsdtcWrgT1Xq_-175" value="M" style="text;html=1;strokeColor=none;fillColor=none;align=center;verticalAlign=middle;whiteSpace=wrap;rounded=0;" parent="1" vertex="1">
          <mxGeometry x="951.3800000000001" y="142.13" width="21.37" height="30" as="geometry" />
        </mxCell>
        <mxCell id="YExKs65hsdtcWrgT1Xq_-176" value="M" style="text;html=1;strokeColor=none;fillColor=none;align=center;verticalAlign=middle;whiteSpace=wrap;rounded=0;" parent="1" vertex="1">
          <mxGeometry x="982.3800000000001" y="230.93" width="21.37" height="30" as="geometry" />
        </mxCell>
        <mxCell id="YExKs65hsdtcWrgT1Xq_-177" value="M" style="text;html=1;strokeColor=none;fillColor=none;align=center;verticalAlign=middle;whiteSpace=wrap;rounded=0;" parent="1" vertex="1">
          <mxGeometry x="969.0900000000001" y="645" width="21.37" height="30" as="geometry" />
        </mxCell>
        <mxCell id="YExKs65hsdtcWrgT1Xq_-178" value="&lt;b&gt;&lt;font style=&quot;font-size: 14px;&quot;&gt;1&lt;/font&gt;&lt;/b&gt;" style="text;html=1;strokeColor=none;fillColor=none;align=center;verticalAlign=middle;whiteSpace=wrap;rounded=0;" parent="1" vertex="1">
          <mxGeometry x="966.54" y="533.64" width="21.37" height="36.73" as="geometry" />
        </mxCell>
        <mxCell id="YExKs65hsdtcWrgT1Xq_-179" value="&lt;b&gt;&lt;font style=&quot;font-size: 14px;&quot;&gt;1&lt;/font&gt;&lt;/b&gt;" style="text;html=1;strokeColor=none;fillColor=none;align=center;verticalAlign=middle;whiteSpace=wrap;rounded=0;" parent="1" vertex="1">
          <mxGeometry x="778.02" y="421.54999999999995" width="21.37" height="36.73" as="geometry" />
        </mxCell>
        <mxCell id="YExKs65hsdtcWrgT1Xq_-180" value="M" style="text;html=1;strokeColor=none;fillColor=none;align=center;verticalAlign=middle;whiteSpace=wrap;rounded=0;" parent="1" vertex="1">
          <mxGeometry x="746.1200000000001" y="500.09000000000003" width="21.37" height="30" as="geometry" />
        </mxCell>
        <mxCell id="YExKs65hsdtcWrgT1Xq_-181" value="M" style="text;html=1;strokeColor=none;fillColor=none;align=center;verticalAlign=middle;whiteSpace=wrap;rounded=0;" parent="1" vertex="1">
          <mxGeometry x="398.7300000000002" y="682.99" width="21.37" height="30" as="geometry" />
        </mxCell>
        <mxCell id="YExKs65hsdtcWrgT1Xq_-182" value="M" style="text;html=1;strokeColor=none;fillColor=none;align=center;verticalAlign=middle;whiteSpace=wrap;rounded=0;" parent="1" vertex="1">
          <mxGeometry x="481.0900000000002" y="729.02" width="21.37" height="30" as="geometry" />
        </mxCell>
        <mxCell id="YExKs65hsdtcWrgT1Xq_-183" value="M" style="text;html=1;strokeColor=none;fillColor=none;align=center;verticalAlign=middle;whiteSpace=wrap;rounded=0;" parent="1" vertex="1">
          <mxGeometry x="325.9800000000002" y="727" width="21.37" height="30" as="geometry" />
        </mxCell>
        <mxCell id="YExKs65hsdtcWrgT1Xq_-184" value="M" style="text;html=1;strokeColor=none;fillColor=none;align=center;verticalAlign=middle;whiteSpace=wrap;rounded=0;" parent="1" vertex="1">
          <mxGeometry x="430.7800000000002" y="519.6700000000001" width="21.37" height="30" as="geometry" />
        </mxCell>
        <mxCell id="YExKs65hsdtcWrgT1Xq_-185" value="M" style="text;html=1;strokeColor=none;fillColor=none;align=center;verticalAlign=middle;whiteSpace=wrap;rounded=0;" parent="1" vertex="1">
          <mxGeometry x="567.2200000000003" y="545.0000000000001" width="21.37" height="30" as="geometry" />
        </mxCell>
        <mxCell id="YExKs65hsdtcWrgT1Xq_-187" value="M" style="text;html=1;strokeColor=none;fillColor=none;align=center;verticalAlign=middle;whiteSpace=wrap;rounded=0;" parent="1" vertex="1">
          <mxGeometry x="490.0000000000002" y="423.1500000000001" width="21.37" height="30" as="geometry" />
        </mxCell>
        <mxCell id="YExKs65hsdtcWrgT1Xq_-188" value="M" style="text;html=1;strokeColor=none;fillColor=none;align=center;verticalAlign=middle;whiteSpace=wrap;rounded=0;" parent="1" vertex="1">
          <mxGeometry x="352.17000000000024" y="399.2800000000001" width="21.37" height="30" as="geometry" />
        </mxCell>
        <mxCell id="YExKs65hsdtcWrgT1Xq_-189" value="M" style="text;html=1;strokeColor=none;fillColor=none;align=center;verticalAlign=middle;whiteSpace=wrap;rounded=0;" parent="1" vertex="1">
          <mxGeometry x="753.5900000000003" y="209.5100000000001" width="21.37" height="30" as="geometry" />
        </mxCell>
        <mxCell id="YExKs65hsdtcWrgT1Xq_-190" value="M" style="text;html=1;strokeColor=none;fillColor=none;align=center;verticalAlign=middle;whiteSpace=wrap;rounded=0;" parent="1" vertex="1">
          <mxGeometry x="886.1600000000003" y="209.5100000000001" width="21.37" height="30" as="geometry" />
        </mxCell>
        <mxCell id="YExKs65hsdtcWrgT1Xq_-191" value="&lt;b&gt;&lt;font style=&quot;font-size: 14px;&quot;&gt;1&lt;/font&gt;&lt;/b&gt;" style="text;html=1;strokeColor=none;fillColor=none;align=center;verticalAlign=middle;whiteSpace=wrap;rounded=0;" parent="1" vertex="1">
          <mxGeometry x="686.12" y="371.53" width="21.37" height="36.73" as="geometry" />
        </mxCell>
        <mxCell id="YExKs65hsdtcWrgT1Xq_-192" value="M" style="text;html=1;strokeColor=none;fillColor=none;align=center;verticalAlign=middle;whiteSpace=wrap;rounded=0;" parent="1" vertex="1">
          <mxGeometry x="767.4900000000004" y="306.1800000000001" width="21.37" height="30" as="geometry" />
        </mxCell>
        <mxCell id="YExKs65hsdtcWrgT1Xq_-193" value="M" style="text;html=1;strokeColor=none;fillColor=none;align=center;verticalAlign=middle;whiteSpace=wrap;rounded=0;" parent="1" vertex="1">
          <mxGeometry x="823.2600000000003" y="339.2400000000001" width="21.37" height="30" as="geometry" />
        </mxCell>
        <mxCell id="2JMLC_-yTl61qDG-5Rj--1" value="&lt;b&gt;full_grade&lt;/b&gt;" style="ellipse;whiteSpace=wrap;html=1;" parent="1" vertex="1">
          <mxGeometry x="778.02" y="286.7299999999999" width="88.06" height="26.7" as="geometry" />
        </mxCell>
      </root>
    </mxGraphModel>
  </diagram>
</mxfile>
